<svg width="86" height="86" viewBox="0 0 86 86" fill="none" xmlns="http://www.w3.org/2000/svg">
<g filter="url(#filter0_d)">
<circle cx="43" cy="36.001" r="23" transform="rotate(-180 43 36.001)" fill="#B5383E"/>
</g>
<path fill-rule="evenodd" clip-rule="evenodd" d="M34.8398 36.3229C34.8615 36.356 34.8869 36.3874 34.9161 36.4165C34.9228 36.4233 34.9297 36.4298 34.9366 36.4361L45.5875 47.087C45.8157 47.3152 46.1857 47.3152 46.4139 47.087C46.6421 46.8588 46.6421 46.4889 46.4139 46.2607L36.1592 36.006L46.4161 25.7491C46.646 25.5192 46.646 25.1465 46.4161 24.9165C46.1861 24.6866 45.8134 24.6866 45.5835 24.9165L34.9161 35.5839C34.8873 35.6127 34.8622 35.6436 34.8407 35.6762C34.7104 35.8713 34.7101 36.1275 34.8398 36.3229Z" fill="white"/>
<defs>
<filter id="filter0_d" x="0" y="0.000976562" width="86" height="86" filterUnits="userSpaceOnUse" color-interpolation-filters="sRGB">
<feFlood flood-opacity="0" result="BackgroundImageFix"/>
<feColorMatrix in="SourceAlpha" type="matrix" values="0 0 0 0 0 0 0 0 0 0 0 0 0 0 0 0 0 0 127 0" result="hardAlpha"/>
<feOffset dy="7"/>
<feGaussianBlur stdDeviation="10"/>
<feColorMatrix type="matrix" values="0 0 0 0 0 0 0 0 0 0 0 0 0 0 0 0 0 0 0.3 0"/>
<feBlend mode="normal" in2="BackgroundImageFix" result="effect1_dropShadow"/>
<feBlend mode="normal" in="SourceGraphic" in2="effect1_dropShadow" result="shape"/>
</filter>
</defs>
</svg>
