<svg width="86" height="86" viewBox="0 0 86 86" fill="none" xmlns="http://www.w3.org/2000/svg">
<g filter="url(#filter0_d)">
<circle cx="43" cy="36" r="23" fill="#B5383E"/>
</g>
<path fill-rule="evenodd" clip-rule="evenodd" d="M51.1602 35.6781C51.1385 35.645 51.1131 35.6136 51.0839 35.5844C51.0772 35.5777 51.0703 35.5712 51.0634 35.5648L40.4125 24.9139C40.1843 24.6857 39.8143 24.6857 39.5861 24.9139C39.3579 25.1421 39.3579 25.5121 39.5861 25.7403L49.8408 35.995L39.5839 46.2518C39.354 46.4818 39.354 46.8545 39.5839 47.0844C39.8139 47.3144 40.1866 47.3144 40.4165 47.0844L51.0839 36.417C51.1127 36.3883 51.1378 36.3574 51.1593 36.3247C51.2896 36.1296 51.2899 35.8735 51.1602 35.6781Z" fill="white"/>
<defs>
<filter id="filter0_d" x="0" y="0" width="86" height="86" filterUnits="userSpaceOnUse" color-interpolation-filters="sRGB">
<feFlood flood-opacity="0" result="BackgroundImageFix"/>
<feColorMatrix in="SourceAlpha" type="matrix" values="0 0 0 0 0 0 0 0 0 0 0 0 0 0 0 0 0 0 127 0" result="hardAlpha"/>
<feOffset dy="7"/>
<feGaussianBlur stdDeviation="10"/>
<feColorMatrix type="matrix" values="0 0 0 0 0 0 0 0 0 0 0 0 0 0 0 0 0 0 0.3 0"/>
<feBlend mode="normal" in2="BackgroundImageFix" result="effect1_dropShadow"/>
<feBlend mode="normal" in="SourceGraphic" in2="effect1_dropShadow" result="shape"/>
</filter>
</defs>
</svg>
