<svg width="86" height="86" viewBox="0 0 86 86" fill="none" xmlns="http://www.w3.org/2000/svg">
<g filter="url(#filter0_d)">
<circle cx="43" cy="36" r="23" fill="white"/>
</g>
<path fill-rule="evenodd" clip-rule="evenodd" d="M36.3867 36.8842C36.3961 36.8952 36.406 36.9058 36.4164 36.9162C36.4208 36.9206 36.4253 36.925 36.4298 36.9292L47.087 47.5864C47.3152 47.8146 47.6852 47.8146 47.9134 47.5864C48.1416 47.3582 48.1416 46.9883 47.9134 46.7601L37.6593 36.5059L47.9163 26.2489C48.1462 26.019 48.1462 25.6462 47.9163 25.4163C47.6864 25.1864 47.3136 25.1864 47.0837 25.4163L36.4164 36.0836C36.4159 36.0841 36.4154 36.0846 36.4149 36.0851C36.4144 36.0856 36.414 36.086 36.4135 36.0865C36.1946 36.3054 36.1857 36.6547 36.3867 36.8842Z" fill="#B5383E"/>
<defs>
<filter id="filter0_d" x="0" y="0" width="86" height="86" filterUnits="userSpaceOnUse" color-interpolation-filters="sRGB">
<feFlood flood-opacity="0" result="BackgroundImageFix"/>
<feColorMatrix in="SourceAlpha" type="matrix" values="0 0 0 0 0 0 0 0 0 0 0 0 0 0 0 0 0 0 127 0" result="hardAlpha"/>
<feOffset dy="7"/>
<feGaussianBlur stdDeviation="10"/>
<feColorMatrix type="matrix" values="0 0 0 0 0 0 0 0 0 0 0 0 0 0 0 0 0 0 0.3 0"/>
<feBlend mode="normal" in2="BackgroundImageFix" result="effect1_dropShadow"/>
<feBlend mode="normal" in="SourceGraphic" in2="effect1_dropShadow" result="shape"/>
</filter>
</defs>
</svg>
