<svg width="86" height="86" viewBox="0 0 86 86" fill="none" xmlns="http://www.w3.org/2000/svg">
<g filter="url(#filter0_d)">
<circle r="23" transform="matrix(-1 8.74228e-08 8.74228e-08 1 43 36)" fill="white"/>
</g>
<path fill-rule="evenodd" clip-rule="evenodd" d="M51.1133 36.3841C51.1039 36.3951 51.094 36.4057 51.0836 36.4161C51.0792 36.4205 51.0747 36.4249 51.0702 36.4291L40.413 47.0863C40.1848 47.3145 39.8148 47.3145 39.5866 47.0863C39.3584 46.8581 39.3584 46.4882 39.5866 46.26L49.8407 36.0058L39.5837 25.7488C39.3538 25.5189 39.3538 25.1461 39.5837 24.9162C39.8136 24.6863 40.1864 24.6863 40.4163 24.9162L51.0836 35.5835C51.0841 35.584 51.0846 35.5845 51.0851 35.585C51.0856 35.5855 51.086 35.5859 51.0865 35.5864C51.3054 35.8053 51.3143 36.1546 51.1133 36.3841Z" fill="#B5383E"/>
<defs>
<filter id="filter0_d" x="0" y="0" width="86" height="86" filterUnits="userSpaceOnUse" color-interpolation-filters="sRGB">
<feFlood flood-opacity="0" result="BackgroundImageFix"/>
<feColorMatrix in="SourceAlpha" type="matrix" values="0 0 0 0 0 0 0 0 0 0 0 0 0 0 0 0 0 0 127 0" result="hardAlpha"/>
<feOffset dy="7"/>
<feGaussianBlur stdDeviation="10"/>
<feColorMatrix type="matrix" values="0 0 0 0 0 0 0 0 0 0 0 0 0 0 0 0 0 0 0.3 0"/>
<feBlend mode="normal" in2="BackgroundImageFix" result="effect1_dropShadow"/>
<feBlend mode="normal" in="SourceGraphic" in2="effect1_dropShadow" result="shape"/>
</filter>
</defs>
</svg>
