<svg width="34" height="36" viewBox="0 0 34 36" fill="none" xmlns="http://www.w3.org/2000/svg">
<path fill-rule="evenodd" clip-rule="evenodd" d="M1.94952 16.128H1.42966C1.02532 15.2159 0.173288 11.8506 0 6.9417C5.30803e-06 6.60916 0.0364555 6.47606 0.348373 6.44289C1.82876 6.28547 6.96673 5.02961 8.79549 0H17.1555V16.0508H32.5506C29.8009 26.9691 21.5238 33.5588 16.8118 35.8564V16.128H1.94952Z" fill="url(#paint0_linear)"/>
<path fill-rule="evenodd" clip-rule="evenodd" d="M32.0505 16.128H32.5703C32.9747 15.2159 33.8267 11.8506 34 6.9417C34 6.60916 33.9635 6.47606 33.6516 6.44289C32.1712 6.28547 27.0333 5.02961 25.2045 0H16.8445V16.128H32.0505ZM16.9313 16.1328V35.7937C12.2906 33.5128 4.1386 26.9713 1.4304 16.1328H16.9313Z" fill="url(#paint1_linear)"/>
<path d="M10.0059 11.3945C10.0059 11.2279 10.1023 11.1445 10.2952 11.1445C10.3595 11.1445 10.5041 11.1556 10.7291 11.1779C10.9649 11.2001 11.1041 11.2112 11.147 11.2112C11.3077 11.2112 11.5274 11.2056 11.806 11.1945C12.0846 11.1834 12.2667 11.1779 12.3524 11.1779C12.556 11.1779 12.6846 11.2556 12.7382 11.4112C12.8668 11.7 13.0971 12.2222 13.4293 12.9777C13.7615 13.722 14.024 14.3164 14.2169 14.7608C14.4204 15.2052 14.6776 15.7718 14.9883 16.4606C15.2991 17.1494 15.5509 17.7105 15.7438 18.1438C15.9366 18.5659 16.1349 18.9937 16.3384 19.427C16.5527 19.8602 16.7135 20.1824 16.8206 20.3935C16.9385 20.5935 17.0135 20.6935 17.0456 20.6935C17.0778 20.6935 17.1099 20.6768 17.1421 20.6435C17.1849 20.599 17.2224 20.5435 17.2546 20.4768C17.2974 20.4102 17.3296 20.3435 17.351 20.2769C17.3831 20.2102 17.4207 20.1269 17.4635 20.0269C17.5171 19.9158 17.5546 19.8325 17.576 19.7769L19.6494 15.3441C19.8851 14.8441 20.094 14.3942 20.2762 13.9942C20.4584 13.5943 20.603 13.2721 20.7102 13.0277C20.8173 12.7832 20.9084 12.5722 20.9834 12.3944C21.0584 12.2166 21.112 12.0833 21.1441 11.9944C21.187 11.9056 21.2138 11.8389 21.2245 11.7945C21.2459 11.7389 21.262 11.7 21.2727 11.6778C21.2834 11.6445 21.2941 11.6167 21.3048 11.5945C21.3156 11.5723 21.3316 11.5223 21.3531 11.4445C21.3852 11.3667 21.412 11.3167 21.4334 11.2945C21.4656 11.2612 21.5191 11.2279 21.5942 11.1945C21.6799 11.1612 21.787 11.1445 21.9156 11.1445C22.1192 11.1445 22.3067 11.1501 22.4781 11.1612C22.6603 11.1723 22.9335 11.1779 23.2978 11.1779C23.48 11.1779 23.5711 11.2501 23.5711 11.3945C23.5711 11.5056 23.5336 11.5889 23.4586 11.6445C23.3943 11.6889 23.255 11.7278 23.0407 11.7611C22.7728 11.7945 22.5853 11.9333 22.4781 12.1778C22.371 12.4222 22.3174 12.8888 22.3174 13.5776C22.3174 15.0774 22.3496 16.4384 22.4139 17.6605C22.4781 18.8715 22.5103 19.6325 22.5103 19.9436C22.5103 21.0546 22.596 21.7656 22.7674 22.0767C22.9389 22.3766 23.2978 22.5266 23.8443 22.5266C23.9193 22.5266 23.9836 22.5544 24.0372 22.6099C24.1015 22.6655 24.1336 22.7155 24.1336 22.7599C24.1336 22.8266 24.1283 22.8766 24.1175 22.9099C24.1068 22.9432 24.0854 22.971 24.0533 22.9932C24.0211 23.0155 23.989 23.0266 23.9568 23.0266C23.9247 23.0266 23.8657 23.0266 23.78 23.0266C23.4586 23.0266 23.1425 23.0155 22.8317 22.9932C22.521 22.971 22.2906 22.9599 22.1406 22.9599C21.8406 22.9599 21.5299 22.971 21.2084 22.9932C20.887 23.0266 20.6405 23.0432 20.4691 23.0432C20.2762 23.0432 20.1798 22.9655 20.1798 22.8099C20.1798 22.7099 20.2226 22.6377 20.3084 22.5933C20.3941 22.5488 20.4905 22.5211 20.5977 22.51C20.7155 22.4988 20.8334 22.4322 20.9513 22.31C21.0798 22.1767 21.1709 21.9822 21.2245 21.7267C21.2673 21.5045 21.2888 21.149 21.2888 20.6602C21.2888 20.3046 21.2781 19.8769 21.2566 19.377C21.2459 18.877 21.2298 18.3937 21.2084 17.9271C21.187 17.4494 21.1656 17.005 21.1441 16.5939C21.1227 16.1718 21.1066 15.8274 21.0959 15.5607L21.0638 15.1608C21.0638 14.683 21.0155 14.4442 20.9191 14.4442C20.9084 14.4442 20.8923 14.4497 20.8709 14.4608C20.8495 14.4719 20.828 14.4886 20.8066 14.5108C20.7959 14.533 20.7798 14.5553 20.7584 14.5775C20.737 14.5997 20.7155 14.6386 20.6941 14.6941C20.6727 14.7386 20.6512 14.7775 20.6298 14.8108C20.6084 14.8441 20.5816 14.8941 20.5494 14.9608C20.5173 15.0163 20.4905 15.0663 20.4691 15.1108C20.4476 15.1552 20.4155 15.2163 20.3726 15.2941C20.3405 15.3718 20.3137 15.4385 20.2923 15.4941L18.0582 20.1769C17.801 20.7213 17.5278 21.3045 17.2385 21.9267C17.0456 22.3489 16.9278 22.5988 16.8849 22.6766C16.842 22.7433 16.7885 22.7766 16.7242 22.7766C16.6277 22.7766 16.5474 22.7321 16.4831 22.6433C16.4188 22.5433 16.3224 22.3322 16.1938 22.01C16.0652 21.6878 15.9527 21.4212 15.8563 21.2101C13.8954 17.0772 12.8882 14.9719 12.8346 14.8941C12.8025 14.8497 12.7703 14.8275 12.7382 14.8275C12.6525 14.8275 12.6096 15.0497 12.6096 15.4941C12.5989 16.3606 12.5721 17.2161 12.5292 18.0604C12.4864 18.9048 12.465 19.5158 12.465 19.8936V20.6435C12.465 20.9323 12.4703 21.1545 12.481 21.3101C12.5025 21.4656 12.5453 21.6489 12.6096 21.86C12.6846 22.06 12.8132 22.2155 12.9953 22.3266C13.1775 22.4377 13.4132 22.51 13.7025 22.5433C13.7561 22.5433 13.8043 22.5655 13.8472 22.6099C13.9008 22.6433 13.9276 22.6822 13.9276 22.7266C13.9276 22.8488 13.9115 22.9321 13.8793 22.9766C13.8472 23.0099 13.7829 23.0266 13.6865 23.0266C13.4722 23.0266 13.1507 23.0155 12.7221 22.9932C12.2935 22.971 12.0578 22.9599 12.0149 22.9599C11.9935 22.9599 11.8381 22.9655 11.5488 22.9766C11.2595 22.9988 10.9756 23.0099 10.697 23.0099C10.6113 23.0099 10.547 23.0043 10.5041 22.9932C10.472 22.9821 10.4398 22.9599 10.4077 22.9266C10.3755 22.8821 10.3595 22.821 10.3595 22.7433C10.3595 22.6544 10.4077 22.5933 10.5041 22.5599C10.6005 22.5266 10.7077 22.51 10.8256 22.51C10.9541 22.4988 11.0934 22.41 11.2434 22.2433C11.3935 22.0656 11.506 21.81 11.581 21.4767C11.6345 21.2323 11.6988 20.2658 11.7738 18.577C11.8488 16.8883 11.8863 15.6385 11.8863 14.8275C11.8863 13.7165 11.7792 12.9499 11.5649 12.5277C11.3613 12.1055 10.9113 11.8111 10.2148 11.6445C10.0755 11.6111 10.0059 11.5278 10.0059 11.3945Z" fill="#B5383E"/>
<path fill-rule="evenodd" clip-rule="evenodd" d="M16.9005 8.76104C16.8856 7.18663 16.881 6.21488 16.8865 5.84579C16.8922 5.41983 16.9416 5.10119 17.0348 4.88988C17.1353 4.66789 17.2382 4.54966 17.3433 4.53518C17.4557 4.51003 17.5566 4.47495 17.646 4.42993C17.7351 4.37453 17.7781 4.27421 17.7749 4.12896C17.7726 4.02521 17.7075 3.97583 17.5795 3.98081C17.5494 3.98198 17.4029 3.99808 17.14 4.02909C16.8771 4.06011 16.629 4.08016 16.3958 4.08926C16.2302 4.09571 16.0419 4.09267 15.8307 4.08013C15.6271 4.0673 15.4876 4.06235 15.4124 4.06528C15.3748 4.06675 15.322 4.06361 15.254 4.05588C15.1861 4.04814 15.137 4.04486 15.1069 4.04604C14.9038 4.05395 14.8042 4.15129 14.8084 4.33804C14.81 4.41067 14.8188 4.46744 14.8347 4.50835C14.858 4.53859 14.9073 4.55225 14.9825 4.54932C15.2235 4.55031 15.4362 4.63028 15.6205 4.78924C15.8047 4.94821 15.904 5.17798 15.9181 5.47856C15.9479 6.14198 15.9659 6.61375 15.9721 6.89387C15.9794 7.22588 15.9821 7.68786 15.9801 8.27982C15.9818 8.45368 15.9834 8.61408 15.9851 8.76104H16.9005ZM17.3562 17.1241C17.3349 14.5045 17.3282 12.8874 17.336 12.2728C17.3438 11.5628 17.4134 11.0318 17.5447 10.6796C17.6862 10.3097 17.831 10.1127 17.9791 10.0886C18.1374 10.0467 18.2796 9.98826 18.4055 9.91326C18.531 9.82097 18.5915 9.65378 18.587 9.41168C18.5837 9.23876 18.492 9.15643 18.3118 9.16469C18.2694 9.16663 18.063 9.19339 17.6927 9.24498C17.3224 9.29657 16.9729 9.3299 16.6443 9.34496C16.4111 9.35565 16.1458 9.3505 15.8484 9.32952C15.5615 9.30805 15.3651 9.29975 15.2591 9.30461C15.2061 9.30704 15.1318 9.30179 15.0361 9.28887C14.9403 9.27595 14.8713 9.27047 14.8289 9.27241C14.5427 9.28553 14.4025 9.44772 14.4084 9.75898C14.4107 9.88003 14.423 9.97465 14.4456 10.0428C14.4783 10.0933 14.5477 10.116 14.6537 10.1112C14.9932 10.1129 15.2928 10.2463 15.5524 10.5113C15.812 10.7764 15.9518 11.1594 15.9718 11.6604C16.0138 12.7661 16.0393 13.5524 16.048 14.0193C16.0585 14.5727 16.0623 15.3427 16.0597 16.3293C16.062 16.6162 16.0644 16.8812 16.0667 17.1241H17.3562ZM16.0086 17.1282L16.8089 19.1217L17.4094 17.1282H16.0086Z" fill="#B5383E"/>
<path fill-rule="evenodd" clip-rule="evenodd" d="M17.3304 20.7109C17.3325 20.873 17.3348 21.0412 17.3372 21.2154C17.3644 23.175 17.3817 24.2698 17.3888 24.4996L17.4094 25.1561C17.434 25.944 17.5833 26.3725 17.8573 26.4416C18.143 26.5213 18.3877 26.5584 18.5914 26.5527C19.4402 26.5293 20.1803 26.4705 20.8116 26.3764C21.4543 26.282 21.9324 26.1757 22.2459 26.0575C22.5703 25.9281 22.838 25.7948 23.0489 25.6575C23.2595 25.5093 23.3914 25.3798 23.4446 25.2688C23.5087 25.1465 23.5679 25.0463 23.6221 24.9682C23.6876 24.8897 23.7543 24.8495 23.8222 24.8476C23.958 24.8439 24.0288 24.935 24.0346 25.121C24.0493 25.5916 23.8209 26.0743 23.3493 26.5692C22.8777 27.0641 22.4608 27.3166 22.0986 27.3266C21.2838 27.3491 20.3606 27.3472 19.329 27.3209C18.3087 27.2943 17.6741 27.2845 17.4251 27.2913C17.1082 27.3001 16.7411 27.3321 16.3237 27.3875C15.9177 27.4425 15.5788 27.4737 15.3072 27.4812C14.979 27.4903 14.8128 27.4292 14.8087 27.2979C14.8063 27.2213 14.8328 27.1603 14.888 27.115C14.9542 27.0584 15.0156 27.0293 15.0721 27.0277C15.2419 27.0231 15.4043 26.9638 15.5593 26.85C15.7583 26.6912 15.8967 26.4081 15.9746 26.0007C16.0521 25.5824 16.0726 24.7878 16.036 23.617L15.9724 21.5816C15.9659 21.3732 15.9596 21.083 15.9537 20.7109L17.3304 20.7109Z" fill="#B5383E"/>
<defs>
<linearGradient id="paint0_linear" x1="16.1541" y1="0.0834269" x2="16.1541" y2="35.373" gradientUnits="userSpaceOnUse">
<stop stop-color="#ECD8B1"/>
<stop offset="1" stop-color="#C4B59A"/>
<stop offset="1" stop-color="#C4C4C4"/>
</linearGradient>
<linearGradient id="paint1_linear" x1="17.8458" y1="0.0834351" x2="17.8458" y2="35.3765" gradientUnits="userSpaceOnUse">
<stop stop-color="#ECD8B1"/>
<stop offset="1" stop-color="#C4B59A"/>
<stop offset="1" stop-color="#C4C4C4"/>
</linearGradient>
</defs>
</svg>
