<svg width="202" height="89" viewBox="0 0 202 89" fill="none" xmlns="http://www.w3.org/2000/svg">
<path fill-rule="evenodd" clip-rule="evenodd" d="M4.88201 51.335H5.92239H30.2659V24.4457H16.8822L16.8822 24.4457H16.5253C16.0248 24.446 15.3754 24.4461 15.2311 24.4457C14.9392 24.445 14.6656 24.5448 10.9152 25.913C9.12797 26.5651 6.55121 27.5051 2.8067 28.8596C2.65479 28.9146 2.65499 28.9281 2.6579 29.1171C2.65836 29.1471 2.65889 29.1815 2.65889 29.2212C2.65889 29.4399 2.68324 30.3482 2.71214 31.4264L2.71214 31.4264L2.71214 31.4264C2.758 33.137 2.81531 35.2751 2.80502 35.7645C2.80232 35.8231 2.80137 35.8874 2.80137 35.9582C3.0406 43.016 3.89875 46.8816 4.57523 49.9288L4.57523 49.9288L4.57526 49.9289L4.57527 49.929C4.68323 50.4153 4.78656 50.8808 4.88201 51.335ZM30.2646 85.5583V51.3355H55.5723C51.1507 70.2017 37.8413 81.5881 30.2646 85.5583ZM8.05113 32.499C8.05113 32.3057 8.16943 32.209 8.40605 32.209C8.48492 32.209 8.66238 32.2219 8.93843 32.2477C9.22762 32.2735 9.39851 32.2863 9.45109 32.2863C9.64826 32.2863 9.91774 32.2799 10.2595 32.267C10.6013 32.2541 10.8248 32.2477 10.9299 32.2477C11.1797 32.2477 11.3374 32.3379 11.4031 32.5183C11.5609 32.8535 11.8435 33.4592 12.251 34.3357C12.6585 35.1993 12.9806 35.8888 13.2172 36.4044C13.4669 36.9199 13.7824 37.5773 14.1636 38.3764C14.5448 39.1755 14.8537 39.8264 15.0904 40.3291C15.327 40.8189 15.5702 41.3151 15.8199 41.8178C16.0828 42.3205 16.28 42.6942 16.4115 42.9391C16.556 43.1711 16.6481 43.2871 16.6875 43.2871C16.7269 43.2871 16.7664 43.2678 16.8058 43.2291C16.8584 43.1776 16.9044 43.1131 16.9438 43.0358C16.9964 42.9585 17.0358 42.8811 17.0621 42.8038C17.1016 42.7265 17.1476 42.6298 17.2002 42.5138C17.2659 42.3849 17.3119 42.2882 17.3382 42.2238L19.8818 37.0811C20.171 36.5011 20.4273 35.979 20.6508 35.515C20.8742 35.051 21.0517 34.6773 21.1831 34.3937C21.3146 34.1101 21.4263 33.8652 21.5183 33.659C21.6104 33.4528 21.6761 33.2981 21.7155 33.195C21.7681 33.0919 21.801 33.0146 21.8141 32.963C21.8404 32.8986 21.8601 32.8535 21.8733 32.8277C21.8864 32.789 21.8995 32.7568 21.9127 32.731C21.9258 32.7052 21.9456 32.6472 21.9718 32.557C22.0113 32.4668 22.0441 32.4088 22.0704 32.383C22.1099 32.3443 22.1756 32.3057 22.2676 32.267C22.3728 32.2283 22.5042 32.209 22.662 32.209C22.9117 32.209 23.1418 32.2155 23.3521 32.2283C23.5756 32.2412 23.9108 32.2477 24.3577 32.2477C24.5812 32.2477 24.6929 32.3315 24.6929 32.499C24.6929 32.6279 24.6469 32.7246 24.5549 32.789C24.476 32.8406 24.3051 32.8857 24.0422 32.9243C23.7136 32.963 23.4835 33.1241 23.3521 33.4077C23.2206 33.6912 23.1549 34.2326 23.1549 35.0317C23.1549 36.7717 23.1944 38.3506 23.2732 39.7684C23.3521 41.1733 23.3915 42.0562 23.3915 42.4171C23.3915 43.706 23.4967 44.5309 23.707 44.8918C23.9173 45.2398 24.3577 45.4138 25.0281 45.4138C25.1201 45.4138 25.199 45.446 25.2647 45.5105C25.3436 45.5749 25.383 45.6329 25.383 45.6845C25.383 45.7618 25.3764 45.8198 25.3633 45.8585C25.3502 45.8972 25.3239 45.9294 25.2844 45.9552C25.245 45.9809 25.2056 45.9938 25.1661 45.9938H24.9492C24.5549 45.9938 24.1671 45.9809 23.7859 45.9552C23.4047 45.9294 23.122 45.9165 22.938 45.9165C22.57 45.9165 22.1887 45.9294 21.7944 45.9552C21.4 45.9938 21.0977 46.0132 20.8874 46.0132C20.6508 46.0132 20.5325 45.9229 20.5325 45.7425C20.5325 45.6265 20.585 45.5427 20.6902 45.4912C20.7954 45.4396 20.9137 45.4074 21.0451 45.3945C21.1897 45.3816 21.3343 45.3043 21.4789 45.1625C21.6367 45.0078 21.7484 44.7823 21.8141 44.4858C21.8667 44.228 21.893 43.8156 21.893 43.2485C21.893 42.836 21.8798 42.3398 21.8535 41.7598C21.8404 41.1798 21.8207 40.6191 21.7944 40.0778C21.7681 39.5235 21.7418 39.008 21.7155 38.5311C21.6892 38.0413 21.6695 37.6417 21.6564 37.3324L21.6169 36.8684C21.6169 36.3142 21.5578 36.0371 21.4395 36.0371C21.4263 36.0371 21.4066 36.0435 21.3803 36.0564C21.354 36.0693 21.3277 36.0886 21.3014 36.1144C21.2883 36.1402 21.2686 36.1659 21.2423 36.1917C21.216 36.2175 21.1897 36.2626 21.1634 36.3271C21.1371 36.3786 21.1108 36.4237 21.0846 36.4624C21.0583 36.5011 21.0254 36.5591 20.986 36.6364C20.9465 36.7008 20.9137 36.7588 20.8874 36.8104C20.8611 36.8619 20.8216 36.9328 20.7691 37.0231C20.7296 37.1133 20.6968 37.1906 20.6705 37.2551L17.9297 42.6878C17.6142 43.3194 17.279 43.996 16.9241 44.7178C16.6875 45.2076 16.5429 45.4976 16.4903 45.5878C16.4377 45.6652 16.372 45.7038 16.2931 45.7038C16.1748 45.7038 16.0762 45.6523 15.9974 45.5492C15.9185 45.4332 15.8002 45.1883 15.6425 44.8145C15.4847 44.4407 15.3467 44.1314 15.2284 43.8865C12.8228 39.0918 11.5872 36.6493 11.5214 36.5591C11.482 36.5075 11.4426 36.4817 11.4031 36.4817C11.298 36.4817 11.2454 36.7395 11.2454 37.2551C11.2323 38.2604 11.1994 39.2529 11.1468 40.2324C11.0942 41.212 11.0679 41.9209 11.0679 42.3591V43.2291C11.0679 43.5642 11.0745 43.822 11.0877 44.0025C11.114 44.1829 11.1665 44.3956 11.2454 44.6405C11.3374 44.8725 11.4952 45.0529 11.7186 45.1818C11.9421 45.3107 12.2313 45.3945 12.5862 45.4332C12.6519 45.4332 12.7111 45.4589 12.7637 45.5105C12.8294 45.5492 12.8623 45.5943 12.8623 45.6458C12.8623 45.7876 12.8425 45.8843 12.8031 45.9358C12.7637 45.9745 12.6848 45.9938 12.5665 45.9938C12.3036 45.9938 11.9092 45.9809 11.3834 45.9552C10.8576 45.9294 10.5684 45.9165 10.5158 45.9165C10.4896 45.9165 10.2989 45.9229 9.94403 45.9358C9.58911 45.9616 9.24076 45.9745 8.89899 45.9745C8.79383 45.9745 8.71496 45.9681 8.66238 45.9552C8.62294 45.9423 8.58351 45.9165 8.54407 45.8778C8.50464 45.8263 8.48492 45.7554 8.48492 45.6652C8.48492 45.562 8.54407 45.4912 8.66238 45.4525C8.78068 45.4138 8.91213 45.3945 9.05673 45.3945C9.21447 45.3816 9.38536 45.2785 9.56939 45.0852C9.75343 44.8789 9.89145 44.5825 9.98346 44.1958C10.0492 43.9123 10.1281 42.7909 10.2201 40.8318C10.3121 38.8726 10.3581 37.4226 10.3581 36.4817C10.3581 35.1928 10.2267 34.3035 9.96375 33.8137C9.71399 33.3239 9.16189 32.9823 8.30746 32.789C8.13657 32.7503 8.05113 32.6537 8.05113 32.499ZM35.5604 56.2235C35.2432 56.2235 35.0846 56.3388 35.0846 56.5695C35.0846 56.6592 35.0963 56.7297 35.1198 56.781C35.1551 56.8195 35.2314 56.8387 35.3489 56.8387C35.7249 56.8515 36.0539 56.9605 36.3358 57.1655C36.6178 57.3706 36.7646 57.659 36.7764 58.0307C36.7999 58.851 36.8116 59.4342 36.8116 59.7802C36.8116 60.1904 36.7999 60.7608 36.7764 61.4913C36.7646 62.2219 36.7588 62.7602 36.7588 63.1063V65.4903C36.7588 66.8618 36.7118 67.791 36.6178 68.2781C36.5238 68.7523 36.3711 69.0791 36.1596 69.2586C35.9951 69.3868 35.8247 69.4508 35.6485 69.4508C35.5898 69.4508 35.5252 69.4829 35.4547 69.547C35.3959 69.5982 35.3666 69.6687 35.3666 69.7585C35.3666 69.9123 35.5369 69.9892 35.8776 69.9892C36.1596 69.9892 36.512 69.9635 36.935 69.9123C37.3697 69.861 37.7515 69.8354 38.0805 69.8354C38.339 69.8354 38.9969 69.8674 40.0543 69.9315C41.1234 69.9956 42.0809 70.0276 42.9268 70.0276C43.3028 70.0276 43.7433 69.7456 44.2485 69.1817C44.7537 68.6177 45.0063 68.0602 45.0063 67.509C45.0063 67.2911 44.9358 67.1822 44.7948 67.1822C44.7244 67.1822 44.6539 67.2271 44.5834 67.3168C44.5246 67.4065 44.46 67.5218 44.3895 67.6628C44.3308 67.791 44.1898 67.9384 43.9666 68.105C43.7433 68.2588 43.4614 68.4062 43.1207 68.5472C42.7917 68.6754 42.2924 68.7843 41.6227 68.8741C40.9648 68.9638 40.1953 69.0086 39.3141 69.0086C39.1026 69.0086 38.85 68.9574 38.5563 68.8548C38.2743 68.7651 38.1334 68.2588 38.1334 67.336V66.567C38.1334 66.2978 38.151 65.0161 38.1862 62.7218C38.2215 60.4275 38.2509 59.0304 38.2743 58.5306C38.2978 58.0051 38.386 57.6141 38.5387 57.3578C38.7032 57.0886 38.8677 56.9476 39.0321 56.9348C39.2084 56.9092 39.367 56.8707 39.508 56.8195C39.6489 56.7554 39.7194 56.6336 39.7194 56.4542C39.7194 56.326 39.6196 56.2619 39.4198 56.2619C39.3728 56.2619 39.1437 56.2747 38.7325 56.3004C38.3213 56.326 37.9336 56.3388 37.5694 56.3388C37.311 56.3388 37.0172 56.326 36.6883 56.3004C36.3711 56.2747 36.1537 56.2619 36.0362 56.2619C35.9775 56.2619 35.8952 56.2555 35.7895 56.2427C35.6838 56.2299 35.6074 56.2235 35.5604 56.2235Z" fill="#2E4A64"/>
<path fill-rule="evenodd" clip-rule="evenodd" d="M18.7113 56.2226C18.6688 56.2516 18.556 56.3339 18.4131 56.4509V56.4477C17.627 57.0783 16.0968 58.483 16.0968 59.8572C16.0968 60.6538 16.4013 61.0315 16.8229 61.5546L16.8244 61.5564L16.8249 61.5571C17.381 62.2473 18.0727 63.1059 18.4041 65.1983C18.4099 65.2214 18.4129 65.245 18.4131 65.2687C18.413 65.4086 18.3097 65.5278 18.1693 65.5499C18.0288 65.572 17.8929 65.4905 17.8485 65.3576C17.7298 65.0255 16.6142 62.1357 13.7805 62.1357C12.3719 62.1357 12.0696 63.05 12.0143 63.5948C11.9 64.7341 12.6551 66.1812 13.8384 66.4145C14.1514 66.4812 14.4726 66.502 14.7915 66.4763L14.7984 66.4789C14.9208 66.4664 15.2149 66.4303 15.4884 66.3606C15.3871 66.3128 15.12 66.1426 14.9123 65.8686L14.9091 65.8644L14.9181 65.8694C14.7583 65.6534 14.6698 65.3945 14.6645 65.1274C14.6786 64.8533 14.8306 64.6041 15.0698 64.463C15.3417 64.2847 15.6839 64.245 15.9905 64.3561C16.7008 64.5877 17.3803 65.4709 17.6785 66.124H19.7313C20.0292 65.4709 20.7091 64.5877 21.4193 64.3561C21.726 64.2453 22.068 64.285 22.34 64.463C22.5793 64.6041 22.7313 64.8533 22.7454 65.1274C22.74 65.3944 22.6516 65.6534 22.492 65.8694L22.4932 65.8687C22.2855 66.1427 22.022 66.3128 21.9207 66.3606C22.1942 66.4303 22.4883 66.4664 22.6107 66.4789L22.6174 66.4763C22.9362 66.5018 23.2572 66.481 23.57 66.4145C24.7498 66.1801 25.5049 64.7338 25.3909 63.5948C25.3356 63.05 25.0333 62.1357 23.6247 62.1357C20.7933 62.1357 19.6775 65.0203 19.5579 65.3541C19.5113 65.4852 19.3771 65.5656 19.2374 65.5461C19.0972 65.526 18.9929 65.4081 18.9921 65.2687C18.9924 65.2458 18.9953 65.2231 19.0008 65.2009C19.3317 63.1082 20.0228 62.2491 20.5789 61.5577L20.5808 61.5553L20.581 61.5551C21.0033 61.0323 21.3084 60.6546 21.3084 59.8572C21.3084 58.4805 19.7782 57.0772 18.9921 56.4472V56.4497L18.7113 56.2226ZM19.8602 67.2627C20.0201 67.2627 20.1497 67.1352 20.1497 66.9779C20.1497 66.8206 20.0201 66.6931 19.8602 66.6931H17.5439C17.384 66.6931 17.2544 66.8206 17.2544 66.9779C17.2544 67.1352 17.384 67.2627 17.5439 67.2627H19.8602ZM21.7104 67.8774C21.7036 67.9188 21.6919 67.9593 21.6757 67.9981C21.5562 68.2479 21.2993 68.4058 21.0187 68.402C20.285 68.402 19.9301 68.0972 19.7575 67.8324H17.6474C17.4737 68.0972 17.1199 68.402 16.3862 68.402C16.1056 68.4058 15.8487 68.2479 15.7292 67.9981C15.713 67.9593 15.7013 67.9188 15.6945 67.8774C15.61 67.9048 15.532 67.9488 15.4652 68.0067C15.2912 68.1898 15.2049 68.4372 15.228 68.6868C15.2176 68.8902 15.3166 69.0841 15.4886 69.1975C15.913 69.4228 16.4172 69.451 16.8648 69.2744C17.2603 69.0916 17.6127 68.8297 17.8996 68.5054C17.9047 68.4993 17.9101 68.4935 17.9158 68.488C18.021 68.3819 18.1913 68.3729 18.3074 68.4672C18.4236 68.5616 18.4468 68.7278 18.3608 68.8494C18.0669 69.3547 17.6341 70.3276 17.8191 70.8753C17.9407 71.1975 18.1305 71.4903 18.3758 71.7346L18.3759 71.735L18.3809 71.7396C18.3914 71.7501 18.4021 71.7605 18.4129 71.7707V71.7693L18.705 72.0401L19.0089 71.7599L19.0132 71.7502C19.2661 71.5029 19.4616 71.2044 19.5858 70.8753C19.7726 70.3228 19.3299 69.3373 19.0374 68.8383C18.9682 68.7288 18.9823 68.5872 19.0719 68.4931L19.0806 68.4846C19.1933 68.3755 19.3744 68.3764 19.4859 68.4866C19.4938 68.4943 19.5019 68.5031 19.5097 68.5125C19.7951 68.8352 20.1464 69.0952 20.5407 69.2755C20.988 69.4522 21.492 69.424 21.916 69.1986C22.0885 69.0851 22.1876 68.8907 22.1769 68.6868C22.2 68.4372 22.1137 68.1898 21.9397 68.0067C21.873 67.9487 21.795 67.9047 21.7104 67.8774Z" fill="#2E4A64"/>
<path fill-rule="evenodd" clip-rule="evenodd" d="M53.526 6.97487C50.1025 10.7057 47.44 15.6936 45.7722 20.2281H45.5294V20.2374H14.6192V20.1384C12.9493 15.6279 10.2993 10.6811 6.89844 6.97487C9.7549 7.30754 13.0363 8.30336 15.1797 10.1067C12.3063 13.6165 16.7381 16.3701 22.2846 15.5584C28.2154 14.6928 31.9826 11.0332 25.1683 8.11932C26.2785 5.06936 28.0995 2.53347 30.212 -1.21593e-05C32.3275 2.53347 34.146 5.06936 35.2571 8.11932C28.442 11.0332 32.21 14.6928 38.1398 15.5582C43.6864 16.3701 48.1195 13.6165 45.246 10.1066C47.3891 8.30336 50.6696 7.30754 53.526 6.97487ZM38.1398 14.8757C39.5461 15.0814 40.8792 15.0576 42.0411 14.85C39.7006 13.4068 39.1697 11.3565 43.1228 10.5477C42.8805 8.44685 42.103 6.58166 41.1385 4.68106C39.3904 6.03205 37.8299 7.42418 36.6456 9.23921C40.4463 11.9073 37.7689 13.7343 34.0186 13.655C35.1322 14.2148 36.5586 14.6454 38.1398 14.8757ZM22.2846 14.8757C23.8667 14.6454 25.2922 14.2148 26.4066 13.655C22.6556 13.7344 19.9778 11.9073 23.7789 9.23921C22.5956 7.42418 21.0348 6.03205 19.286 4.68106C18.3214 6.58166 17.5439 8.44685 17.3016 10.5477C21.2546 11.3565 20.7238 13.4068 18.3833 14.85C19.5453 15.0576 20.8796 15.0814 22.2846 14.8757Z" fill="#2E4A64"/>
<path fill-rule="evenodd" clip-rule="evenodd" d="M14.5477 21.6435H45.6942L60.2588 26.9938L60.3102 27.3794C62.1715 41.3269 58.926 73.1401 30.5737 88.5679L30.3062 88.7135L30.0238 88.5993C19.107 84.1835 -1.94153 65.7847 0.144245 27.4297L0.167163 27.0083L14.5477 21.6435ZM14.7803 22.9328L1.40959 27.9208C-0.453025 65.095 19.7666 82.8883 30.2264 87.2882C57.3935 72.3173 60.7942 41.7877 59.0818 27.9349L45.4649 22.9328H14.7803Z" fill="#2E4A64"/>
<path fill-rule="evenodd" clip-rule="evenodd" d="M42.7985 33.3113L42.8691 32.9456C42.9257 33.1284 43.1282 33.1589 43.2224 33.1514C43.4109 33.1285 43.8019 33.0828 43.8584 33.0828C43.9291 33.0828 43.9055 33.0371 43.6935 32.9685C43.528 32.915 43.2144 32.9587 43.0681 32.9891C43.065 32.983 43.0615 32.9761 43.0576 32.9685C43.001 32.8588 42.877 32.8314 42.822 32.8314L43.0576 32.7628C43.8113 32.5983 44.1254 32.9533 44.1882 33.1514C44.6031 33.0814 44.1731 32.6845 43.8739 32.4703C43.843 32.4627 43.8067 32.4536 43.7642 32.4429C43.3308 32.3332 43.191 32.4276 43.1753 32.4886C43.1188 32.4703 42.979 32.4962 42.9162 32.5114C42.877 32.5419 42.7749 32.6074 42.6807 32.6257C42.6518 32.6313 42.62 32.6466 42.5844 32.6637C42.4749 32.7163 42.3287 32.7865 42.1154 32.6486C41.8893 32.5023 41.9113 32.2219 41.9505 32.1L42.4451 31.7115L42.0683 31.8715C42.0369 31.8944 41.9693 31.9172 41.9505 31.8258C41.9317 31.7344 41.8327 31.681 41.7856 31.6658C41.8092 31.5744 41.8563 31.5287 41.9741 31.5287C42.0683 31.5287 42.296 31.4068 42.398 31.3458C42.4687 31.3078 42.6854 31.2133 42.9869 31.1401C43.2884 31.067 43.3952 31.1706 43.4109 31.2316L43.2931 31.4144L43.5286 31.323C43.56 31.3611 43.6794 31.4418 43.9055 31.4601C44.1316 31.4784 44.2981 31.3916 44.353 31.3458C44.408 31.3306 44.5321 31.3093 44.5886 31.3458C44.6451 31.3824 44.7692 31.422 44.8241 31.4373C44.832 31.3916 44.8524 31.2773 44.8712 31.1859C44.8933 31.079 44.8535 31.092 44.7326 31.1316H44.7326C44.7242 31.1343 44.7155 31.1372 44.7064 31.1401C44.6184 31.1686 44.576 31.1351 44.5111 31.0836C44.4718 31.0524 44.4242 31.0147 44.353 30.9802C44.1646 30.8887 43.9526 30.9802 43.7642 31.0716C43.6134 31.1447 43.5443 31.1173 43.5286 31.0944C43.491 30.9846 43.3559 30.8963 43.2931 30.8659C43.4109 30.6374 43.8584 30.6373 44.1175 30.6373C44.3248 30.6373 44.2981 30.5002 44.2588 30.4317C44.2274 30.4469 44.1787 30.4682 44.2353 30.4317C44.2918 30.3951 44.5258 30.2793 44.6357 30.226C45.201 29.97 44.9497 29.8146 44.7535 29.7689C45.4695 29.5129 45.4444 29.9365 45.3423 30.1803C45.9265 29.906 45.727 29.5784 45.5543 29.4489C46.195 29.4855 46.0411 29.9517 45.8841 30.1803C46.2044 30.0888 46.4415 29.5936 46.52 29.3575C46.5954 29.5769 46.5986 29.9365 46.5907 30.0888L46.8734 29.9974L46.7085 30.2488C46.8969 30.2488 47.4779 29.9746 47.7449 29.8374C47.6506 29.8923 47.5172 30.1345 47.4622 30.2488C47.5564 30.2671 47.9412 30.1498 48.1217 30.0888C48.106 30.2719 47.7965 30.4549 47.6134 30.5632C47.5221 30.6172 47.4623 30.6526 47.4858 30.6602C47.5423 30.6785 48.263 30.6373 48.6164 30.6145C48.5975 30.7059 48.2945 31.003 48.1453 31.1401L48.2866 31.163C48.117 31.4007 47.9176 31.4601 47.8391 31.4601L47.4622 31.3001C47.4858 31.163 47.4151 31.0259 47.2502 30.9344C47.0976 30.8499 46.6425 31.0001 46.4634 31.0592C46.449 31.064 46.4364 31.0682 46.4258 31.0716C46.3128 31.1082 46.206 31.0868 46.1667 31.0716L46.1903 30.9802V30.7516H46.0254L45.7899 31.0944L46.0018 31.0259C45.9233 31.1325 45.7899 31.3275 45.8841 31.2544C46.0018 31.1631 46.1903 31.2316 46.1903 31.3001C46.1903 31.355 46.0961 31.5211 46.0489 31.5972C46.1275 31.582 46.2657 31.5744 46.1903 31.6658C46.0961 31.7801 45.7899 31.8715 45.7192 31.8715C45.6922 31.8715 45.6652 31.8582 45.6422 31.8468C45.6049 31.8283 45.5779 31.815 45.5779 31.8715C45.5779 31.9446 45.7035 31.9781 45.7663 31.9857C45.8056 31.9857 45.9076 31.9903 46.0018 32.0086C46.0684 32.0216 46.0898 32.0345 46.1044 32.0433C46.1156 32.05 46.1227 32.0543 46.1432 32.0543C46.1566 32.0543 46.1642 32.0303 46.1754 31.9955C46.2035 31.9076 46.2537 31.7507 46.4729 31.7344C46.7179 31.7161 46.9676 31.422 47.0618 31.2773C46.9362 31.3534 46.6661 31.515 46.5907 31.5515C46.4965 31.5972 46.3552 31.5744 46.3552 31.5287C46.3552 31.483 46.3552 31.2773 46.4258 31.2316L46.4259 31.2315C46.4435 31.2202 46.4479 31.2173 46.4526 31.2166C46.4543 31.2163 46.4559 31.2163 46.4581 31.2163C46.4756 31.2163 46.528 31.2162 46.8734 31.0944C47.2879 30.9481 47.3601 31.201 47.3444 31.3458C47.3523 31.422 47.3256 31.6246 47.156 31.8257C46.9864 32.0268 46.7085 32.0162 46.5907 31.9857L46.6849 32.1457L46.4965 32.1914L46.6849 32.3285H46.52C46.6064 32.3514 46.7791 32.4382 46.7791 32.6028C46.7791 32.7673 46.842 32.9913 46.8734 33.0827C46.7791 33.0827 46.6143 33.1894 46.5436 33.2427L46.0254 32.9684C46.3834 33.1696 46.4258 33.4789 46.4023 33.6084L46.3552 34.294C46.3395 34.2864 46.2892 34.2575 46.2138 34.2026C46.1385 34.1478 46.1824 34.0121 46.2138 33.9512C46.1761 33.9512 46.0725 34.0426 46.0254 34.0883C45.8935 34.3077 46.0489 34.5302 46.1432 34.614C46.0301 34.6506 45.8919 34.614 45.837 34.5911L45.6956 34.8654C45.7113 34.8121 45.7192 34.6643 45.625 34.4997C45.5308 34.3352 45.5072 34.1721 45.5072 34.1112C45.5637 33.7821 45.4837 33.715 45.4365 33.7227C45.3423 34.2712 44.8948 34.4845 44.6828 34.5226L44.777 34.3397C44.7535 34.3854 44.6027 34.4769 44.1882 34.4769C43.7736 34.4769 43.8741 34.1721 43.9762 34.0198C44.0892 34.6414 44.5572 34.0502 44.777 33.6769C44.7535 33.6617 44.6451 33.6221 44.4002 33.5855C44.1552 33.549 43.6386 33.7227 43.4109 33.8141L42.7985 34.1112L42.822 33.9055L42.5865 33.7455V33.2884L42.7985 33.3113ZM43.0576 32.9914C43.0795 33.0268 43.1096 33.0715 43.0681 32.9891L43.0576 32.9914ZM40.4664 36.2823C40.3565 36.5337 40.3063 37.0456 40.9846 37.0822C41.1417 37.1431 41.517 37.2285 41.7619 37.0822L41.7384 37.1965C41.919 37.1051 42.2943 36.8856 42.3508 36.7394C42.4371 36.7089 42.6429 36.6434 42.7748 36.6251C42.9067 36.6068 43.0967 36.4499 43.1752 36.3737C43.1281 36.5032 42.9915 36.7988 42.8219 36.9451C42.6099 37.1279 42.5628 37.4022 42.7748 37.585C42.7826 37.5088 42.8172 37.329 42.8925 37.2193C42.8925 37.2742 42.9553 37.4555 42.9868 37.5393L43.1045 37.2879C43.3715 37.2955 43.9336 37.2925 44.0467 37.2193C44.1488 37.4326 44.2634 37.8501 43.9054 37.8135C43.9525 37.9202 44.1268 38.0832 44.4471 37.8821C44.3843 37.9659 44.2775 38.1244 44.3529 38.0878C44.4283 38.0512 44.6669 37.844 44.7769 37.745L44.7533 37.2879L44.9182 37.0822C44.8318 37.4479 44.8381 38.0878 45.5542 37.7221C45.3893 37.9354 45.182 38.4398 45.6719 38.7506V38.2706C45.7269 38.4459 45.8604 38.8054 45.9546 38.842V38.7049C46.0095 38.8115 46.1289 39.0523 46.1666 39.162L46.1901 39.2305L46.2372 38.8877L46.2608 38.7734C46.5356 38.9867 47.203 39.4271 47.6741 39.4819C47.5563 39.2305 47.2548 38.682 46.991 38.4992C46.6612 38.2706 46.7083 38.0878 46.9203 37.8821C47.1323 37.6764 47.2736 37.2193 46.7319 37.3793L46.7083 37.2879V37.2422C46.8182 37.2117 47.0852 37.1873 47.2736 37.3336C47.5092 37.5164 48.098 37.8592 48.2158 36.9451C48.1373 37.006 47.9567 37.1142 47.8625 37.0593C47.7683 37.0045 47.6191 36.9298 47.5563 36.8994H47.5092L47.415 36.8536C47.4621 36.8003 47.5563 36.6708 47.5563 36.5794C47.5563 36.488 47.6034 36.6479 47.6269 36.7394C47.7761 36.5565 48.0085 36.1634 47.7447 36.0537C47.4809 35.944 47.5092 35.6881 47.5563 35.5738C47.3993 35.6271 47.0711 35.8252 47.0145 36.1909C46.9517 36.1985 46.7931 36.1497 46.6612 35.8938C46.5984 35.8404 46.4916 35.8115 46.567 36.1223C46.6612 36.5108 46.5906 36.6251 46.4963 36.7165C46.421 36.7897 46.2922 37.0365 46.2372 37.1508C46.0174 37.2879 45.6625 37.4387 46.0017 36.9451C46.1116 36.846 46.3644 36.6251 46.4963 36.5337C46.4649 36.3813 46.4021 36.0674 46.4021 36.0309C46.4021 35.9852 46.4492 35.5966 46.6612 35.6881C46.8308 35.7612 46.8889 35.9166 46.8968 35.9852C46.9203 35.909 47.0334 35.7155 47.2972 35.5509C47.3207 35.5509 47.6976 35.4367 47.6741 34.8424C47.7133 34.9415 47.7683 35.2218 47.6741 35.5509C47.5796 35.881 47.6822 35.9168 47.7873 35.9535C47.8132 35.9625 47.8392 35.9716 47.8625 35.9852C47.9178 36.0173 47.9471 36.0495 47.97 36.0746C47.9958 36.103 48.0134 36.1223 48.0509 36.1223C48.0601 36.1223 48.0745 36.1242 48.0932 36.1268C48.2179 36.1436 48.5322 36.1859 48.7576 35.848C48.5848 35.8785 48.2676 35.8892 48.3807 35.6881C48.522 35.4367 48.5691 35.1395 48.4749 34.9339C48.3995 34.7693 48.3336 34.5758 48.31 34.4996C48.3728 34.5377 48.5974 34.5408 48.9931 34.2482C48.7026 34.3168 48.131 34.3168 48.1687 33.7683C48.2472 33.654 48.3948 33.3203 48.3571 32.8998C48.3193 32.4779 48.0083 32.3799 47.8627 32.334C47.8269 32.3227 47.8011 32.3146 47.7918 32.3056C47.7447 32.2599 47.7212 32.2142 47.7447 32.1456C47.8703 32.2599 48.1781 32.3924 48.4042 32.0085C48.31 32.0389 48.1169 32.0953 48.098 32.077L47.8625 31.8485L48.0038 31.8256C47.8939 31.7037 47.6505 31.4554 47.5563 31.4371C47.4621 31.4188 47.4071 31.6428 47.3914 31.7571C47.3521 31.8713 47.1747 32.1273 46.779 32.237C46.8496 32.3437 46.9816 32.6393 46.9439 32.9684C46.9753 33.0065 47.0334 33.1009 47.0145 33.1741C46.9753 33.1817 46.8732 33.2061 46.779 33.2426C46.6612 33.2883 46.5435 33.4026 46.5199 33.6083C46.501 33.7729 46.4806 34.0425 46.4728 34.1568C46.4728 34.2939 46.5435 34.5773 46.8261 34.6139C46.8418 34.6139 46.8826 34.5956 46.9203 34.5225C46.958 34.4493 47.2187 34.4311 47.3443 34.4311C47.2736 34.4615 47.1182 34.5362 47.0616 34.5911C46.991 34.6596 46.8732 34.7739 46.8025 34.7282C46.7752 34.7105 46.7337 34.7031 46.6905 34.6953C46.6219 34.683 46.5488 34.67 46.5199 34.6139C46.4822 34.5408 46.41 34.4463 46.3786 34.4082V34.5225L46.143 34.2939C46.1038 34.332 46.0865 34.4676 46.3315 34.7053C46.355 34.7282 46.0724 34.8425 45.8839 34.7282C45.8682 34.812 45.7944 35.0299 45.6248 35.231C45.6436 35.2081 45.5777 34.6596 45.5542 34.6368C45.5353 34.6185 45.4364 34.4311 45.3893 34.3396C45.2087 34.4539 44.8146 34.687 44.6827 34.7053L44.6591 34.6368C44.5099 34.6825 44.1503 34.7373 43.9054 34.5911C43.6604 34.4448 43.4578 34.4844 43.3872 34.5225C43.2223 34.5987 42.869 34.7099 42.7748 34.5453C42.6805 34.3808 42.6727 34.3092 42.6805 34.2939C42.5628 34.3473 42.3178 34.5088 42.2801 34.7282L42.0917 34.6825C42.0367 34.8044 42.0446 35.0939 42.5157 35.2767C42.6256 35.33 42.9302 35.4184 43.2694 35.3453C43.2583 35.3475 43.2295 35.3811 43.1945 35.4219C43.1423 35.4829 43.0762 35.5601 43.0339 35.5738C43.1202 35.589 43.3401 35.6104 43.5285 35.5738V35.6652C43.6698 35.65 44.0137 35.5784 44.2587 35.4138L44.0703 35.7109C44.2901 35.6652 44.7486 35.5509 44.824 35.4595L44.7298 35.6652C44.5178 35.7414 44.0467 35.8846 43.8583 35.8481L43.9054 35.7109C43.8033 35.7566 43.552 35.8344 43.3636 35.7795V35.7109C43.2301 35.7109 42.9443 35.7018 42.869 35.6652C42.7936 35.6287 42.8847 35.5433 42.9396 35.5052C42.7669 35.5052 42.3932 35.4732 42.2801 35.3453C42.1671 35.2173 41.9661 35.2919 41.8797 35.3453C41.7384 35.4214 41.451 35.5829 41.4322 35.6195C41.4256 35.6322 41.4028 35.6537 41.3732 35.6815C41.2961 35.754 41.1731 35.8696 41.1731 35.9852C41.1731 36.1452 41.1495 36.6251 40.7727 36.5108C40.702 36.488 40.6549 36.4651 40.6313 36.4194C40.6125 36.3829 40.6706 36.587 40.702 36.6937C40.5999 36.6403 40.4099 36.4834 40.4664 36.2823ZM37.7921 38.4786C37.7529 38.4253 37.5754 38.3598 37.1797 38.5243C37.2975 38.5243 37.566 38.5793 37.6979 38.7987C37.6037 38.8215 37.4247 38.9129 37.4624 39.0958C37.2818 39.0805 36.8924 39.146 36.7793 39.53C36.8971 39.4462 37.1797 39.2969 37.3682 39.37C37.3917 39.4995 37.4906 39.7723 37.6979 39.8271C37.5566 39.8195 37.2598 39.9003 37.2033 40.2842C37.2818 40.208 37.5048 40.0694 37.7686 40.1242C37.7607 40.2461 37.8534 40.4762 38.2868 40.4213C38.4126 40.4054 38.5245 40.3882 38.6239 40.373C38.9522 40.3226 39.144 40.2932 39.2525 40.3985C39.3938 40.5356 39.7 40.627 40.0062 40.4899C40.2512 40.3802 40.5009 40.2766 40.5951 40.2385C40.7286 40.1699 41.052 40.0602 41.2782 40.1699C41.341 40.1699 41.4807 40.1745 41.5373 40.1928C41.6079 40.2156 42.0084 40.4213 41.9141 40.4899C41.8552 40.5328 41.8423 40.522 41.8122 40.4968C41.7941 40.4816 41.7698 40.4613 41.7257 40.4442C41.6079 40.3985 41.5137 40.3756 41.443 40.3756C41.5216 40.5585 41.7869 40.9698 42.2203 41.1527C42.7621 41.3812 43.6807 41.7469 44.1753 41.884C43.3666 41.945 41.9612 42.5011 42.8092 44.2381C42.9819 44.5352 43.2002 45.175 42.6914 45.3579C42.1826 45.5408 41.8356 45.7846 41.7257 45.8836C41.6158 45.9521 41.2829 46.0299 40.8306 45.7922C40.2653 45.4951 39.7942 45.7236 39.5823 45.8379C39.4127 45.9294 39.5116 46.0283 39.5823 46.0664C39.386 45.975 38.9746 45.9567 38.8992 46.615C38.962 46.493 39.1771 46.2766 39.5352 46.3864C39.5509 46.5312 39.5964 46.8298 39.6529 46.8663C39.488 46.9044 39.1865 47.1086 39.2996 47.6205C39.3153 47.491 39.4315 47.2137 39.7707 47.1405C39.7785 47.232 39.8979 47.4103 40.3124 47.392C40.1947 47.4378 40.011 47.648 40.2182 48.1234C40.2496 47.9328 40.3643 47.5519 40.5715 47.5519C40.7443 47.651 41.1604 47.7577 41.443 47.392C41.4666 47.3387 41.5655 47.2366 41.7728 47.2549C42.0319 47.2777 42.4794 47.3006 42.6443 47.1177C42.6895 47.0676 42.7311 46.9936 42.7764 46.9129C42.8967 46.699 43.0431 46.4384 43.3509 46.4549C43.7749 46.4778 44.4109 46.4549 44.5522 46.295C44.5685 46.2765 44.5845 46.2605 44.5998 46.2451C44.717 46.1278 44.7923 46.0523 44.6464 45.2436L44.5287 44.8094C44.4894 44.7028 44.4627 44.4848 44.67 44.4666C44.9291 44.4437 45.1411 44.4666 45.4473 44.5123C45.4889 44.5185 45.5363 44.529 45.5879 44.5403C45.9157 44.6128 46.4172 44.7235 46.7428 44.0323C46.7271 43.9715 46.5543 43.7353 45.989 43.2782C45.4237 42.8211 45.2981 42.3868 45.306 42.2269C45.3138 42.1507 45.3766 42.0806 45.565 42.4097C45.8006 42.8211 46.2481 43.2782 46.4601 43.4381C46.6721 43.5981 47.0019 43.9181 46.9547 44.2838C47.0411 44.5047 47.3976 44.974 48.1325 45.0837C48.5068 45.1395 48.8147 45.1195 49.0768 45.1024C49.4578 45.0777 49.7421 45.0591 49.9933 45.2894C50.4172 45.6779 50.6999 46.4321 50.0404 46.5235C49.8822 46.5454 49.739 46.5608 49.607 46.575C49.1888 46.6197 48.8844 46.6524 48.58 46.8435C48.1796 47.095 48.0853 47.3692 48.4151 47.6891C48.3523 47.8187 48.2738 48.137 48.4622 48.3747C48.4779 48.2072 48.5564 47.8536 48.7449 47.7806C48.8077 47.8111 48.9474 47.872 49.004 47.872C48.9569 48.0472 48.9192 48.4433 49.1453 48.6262C49.1296 48.4814 49.1547 48.1599 49.3808 48.0319C49.53 48.0395 49.8614 48.0365 49.9933 47.9633C49.8676 48.0853 49.7247 48.3885 50.1581 48.6262C50.0875 48.5729 50.0168 48.3793 50.2995 48.0319C50.4251 48.0472 50.6905 47.9908 50.747 47.6434C50.8035 47.296 51.0689 47.2549 51.1946 47.2777C51.3909 47.3082 51.7457 47.2503 51.5949 46.7749C51.5541 46.646 51.5099 46.5247 51.4675 46.4081C51.3141 45.987 51.1832 45.6276 51.3123 45.1979C51.4442 44.7592 51.5243 44.4818 51.5479 44.398C51.6421 44.1695 51.7503 43.7033 51.4301 43.6667C51.1097 43.6301 50.7941 43.6515 50.6763 43.6667C50.5193 43.6743 50.144 43.653 49.899 43.5067C49.6224 43.3416 49.6341 43.1205 49.639 43.0287C49.6395 43.0189 49.6399 43.0105 49.6399 43.0039C49.6399 42.9491 49.6713 42.5697 49.687 42.3868C50.3623 42.5773 51.7222 42.5011 51.7598 40.6727C51.8304 40.3375 51.6938 39.37 50.5821 38.1816C49.1924 36.696 49.4044 34.9134 49.8519 34.6162C50.2995 34.3191 50.5585 34.2506 51.0061 34.4334C51.3641 34.5797 51.3123 35.0277 51.2416 35.2334C51.0375 35.6295 50.78 36.5544 51.3829 37.0846C51.4535 37.1379 51.6091 37.2583 51.6656 37.3131C51.6725 37.3199 51.681 37.3269 51.6902 37.3347C51.7748 37.4054 51.9342 37.5388 51.807 38.1359C51.8855 37.9912 52.0049 37.5737 51.854 37.0617C51.9875 37.3284 52.3863 37.9028 52.9139 38.0673C52.6627 37.8007 52.1415 37.1714 52.066 36.7875C52.1916 36.9855 52.5041 37.3954 52.7491 37.4503C52.5685 37.1531 52.2073 36.4355 52.2073 35.9419C52.2073 35.4482 52.5685 35.7362 52.7491 35.9419C52.812 36.0561 52.947 36.3258 52.9847 36.4904C53.1024 36.0409 53.1496 35.0002 52.3958 34.4334C51.6421 33.8666 50.6214 33.8773 50.2052 33.9535C49.9776 34.022 49.4704 34.342 49.2631 35.0733C49.004 35.9875 49.0746 36.9703 49.6399 37.8845C50.0922 38.6158 50.5664 39.2253 50.747 39.4386C51.1003 39.9338 51.5808 41.0841 50.6763 41.724C50.5193 41.8307 50.1016 42.0029 49.687 41.8383C49.7656 41.5412 49.5033 40.7687 47.8263 40.0556C47.363 39.8576 46.413 39.434 46.3188 39.3243L46.0126 39.6671C46.0204 39.4995 46.022 39.1552 45.9655 39.1186V39.05L45.8948 39.1186L45.7064 38.9129L45.6593 39.0043L45.306 38.7529C45.196 38.6463 44.9997 38.3781 45.094 38.1587L45.1882 37.9987C45.0783 38.0063 44.849 37.9987 44.8113 37.9073C44.67 38.0444 44.3496 38.3096 44.1989 38.273V38.1587C44.0576 38.1968 43.7561 38.1999 43.6807 37.9073C43.6141 37.6488 43.6888 37.6758 43.7715 37.7058C43.8058 37.7182 43.8415 37.7312 43.8691 37.7245C43.9634 37.7016 44.0576 37.4731 43.8691 37.4502C43.788 37.4404 43.7024 37.4475 43.6106 37.4551C43.4893 37.4652 43.3571 37.4762 43.2096 37.4502C43.1704 37.4426 43.073 37.5005 42.9976 37.793L42.9741 37.953L42.8092 37.6331L42.7621 37.953C42.6443 37.8616 42.4088 37.6513 42.4088 37.5416C42.4088 37.5125 42.4056 37.4845 42.4024 37.4561C42.3905 37.3509 42.3781 37.2418 42.5265 37.0617C42.6773 36.8789 42.7464 36.8179 42.7621 36.8103C42.6522 36.8331 42.4135 36.888 42.3381 36.9246C42.2627 36.9611 42.1654 37.0617 42.1261 37.1074C42.079 37.1684 41.9518 37.2994 41.8199 37.336C41.688 37.3725 41.5608 37.3969 41.5137 37.4045L41.5373 37.336C41.3959 37.3588 41.0803 37.3908 40.9484 37.336C40.8395 37.2907 40.7512 37.2753 40.6834 37.2635H40.6834C40.6485 37.2574 40.6191 37.2523 40.5951 37.2445C40.5903 37.243 40.5829 37.2414 40.5734 37.2394C40.4432 37.2122 39.9204 37.1026 40.3595 35.7818C40.1711 35.5609 39.766 34.9408 39.6529 34.2277C39.5399 33.5146 39.5744 33.245 39.6058 33.1993C39.6608 32.9555 39.5775 32.4633 38.805 32.4451H38.7578C38.7578 32.3536 38.6448 32.1754 38.1926 32.1936L38.4988 32.4678C38.381 32.4983 38.1219 32.6004 38.0277 32.765C37.8785 32.7116 37.5189 32.637 37.2739 32.765C37.4231 32.7878 37.7544 32.8609 37.8863 32.9706C37.8157 33.0468 37.6932 33.2586 37.7686 33.4963C37.6194 33.4354 37.2551 33.3683 36.9913 33.5877C37.1248 33.5725 37.4388 33.5877 37.6273 33.7706C37.533 33.8772 37.4906 34.1682 38.0748 34.4791C38.805 34.8676 38.9227 35.5304 38.9227 36.6046C38.9227 37.6787 39.912 38.2729 40.5951 38.6386C40.9576 38.8327 41.3268 38.9238 41.597 38.9904V38.9904C41.8358 39.0494 41.9973 39.0892 42.0084 39.1643C42.0272 39.2923 41.7336 39.2176 41.5844 39.1643L40.548 38.8214L40.2653 38.73L39.7471 39.0729C39.6137 39.1567 39.2902 39.2511 39.0641 38.9586C38.8379 38.666 38.5145 38.4405 38.381 38.3644C38.2789 38.3186 38.0183 38.2775 37.7921 38.4786ZM42.3036 32.9681C41.8718 33.0901 40.9611 33.2196 40.7726 32.7625L40.6313 32.8996C40.5999 32.8005 40.6125 32.5385 40.9139 32.2825C40.5685 32.4044 39.9859 32.7625 40.4193 33.2195C40.8527 33.6766 41.6991 33.4862 42.0681 33.3338L42.4921 33.1738L42.3036 32.9681ZM42.3979 32.8311L42.6099 32.7625C42.6334 32.7473 42.6805 32.7214 42.6805 32.7396V33.1281L42.3979 32.8311Z" fill="#2E4A64"/>
<path d="M71.3047 33.4697C71.3047 33.2648 71.4287 33.1623 71.6769 33.1623C71.7596 33.1623 71.9457 33.176 72.2352 33.2033C72.5384 33.2306 72.7176 33.2443 72.7728 33.2443C72.9795 33.2443 73.2621 33.2375 73.6205 33.2238C73.9789 33.2101 74.2133 33.2033 74.3235 33.2033C74.5854 33.2033 74.7509 33.2989 74.8198 33.4902C74.9852 33.8454 75.2816 34.4875 75.7089 35.4165C76.1362 36.3319 76.4739 37.0628 76.7221 37.6093C76.984 38.1558 77.3148 38.8525 77.7146 39.6996C78.1143 40.5466 78.4383 41.2365 78.6864 41.7694C78.9345 42.2885 79.1895 42.8145 79.4514 43.3473C79.7271 43.8801 79.9339 44.2763 80.0717 44.5359C80.2234 44.7818 80.3199 44.9048 80.3612 44.9048C80.4026 44.9048 80.4439 44.8843 80.4853 44.8433C80.5404 44.7887 80.5887 44.7203 80.63 44.6384C80.6852 44.5564 80.7265 44.4744 80.7541 44.3925C80.7954 44.3105 80.8437 44.208 80.8988 44.0851C80.9677 43.9484 81.016 43.846 81.0436 43.7777L83.7109 38.3265C84.0141 37.7118 84.283 37.1584 84.5173 36.6666C84.7516 36.1748 84.9377 35.7786 85.0756 35.478C85.2134 35.1775 85.3306 34.9179 85.4271 34.6993C85.5236 34.4807 85.5925 34.3167 85.6338 34.2075C85.689 34.0982 85.7234 34.0162 85.7372 33.9615C85.7648 33.8932 85.7855 33.8454 85.7993 33.8181C85.813 33.7771 85.8268 33.7429 85.8406 33.7156C85.8544 33.6883 85.8751 33.6268 85.9026 33.5312C85.944 33.4355 85.9785 33.3741 86.006 33.3467C86.0474 33.3058 86.1163 33.2648 86.2128 33.2238C86.3231 33.1828 86.4609 33.1623 86.6263 33.1623C86.8883 33.1623 87.1295 33.1691 87.35 33.1828C87.5844 33.1965 87.9359 33.2033 88.4046 33.2033C88.6389 33.2033 88.7561 33.2921 88.7561 33.4697C88.7561 33.6063 88.7078 33.7088 88.6113 33.7771C88.5286 33.8317 88.3494 33.8796 88.0737 33.9205C87.7291 33.9615 87.4879 34.1323 87.35 34.4329C87.2122 34.7334 87.1433 35.3072 87.1433 36.1543C87.1433 37.9987 87.1846 39.6722 87.2673 41.1751C87.35 42.6642 87.3914 43.6001 87.3914 43.9826C87.3914 45.3488 87.5017 46.2232 87.7222 46.6057C87.9428 46.9746 88.4046 47.159 89.1076 47.159C89.2041 47.159 89.2868 47.1932 89.3557 47.2615C89.4384 47.3298 89.4798 47.3913 89.4798 47.4459C89.4798 47.5279 89.4729 47.5894 89.4591 47.6304C89.4453 47.6713 89.4177 47.7055 89.3764 47.7328C89.335 47.7601 89.2937 47.7738 89.2523 47.7738C89.211 47.7738 89.1352 47.7738 89.0249 47.7738C88.6113 47.7738 88.2047 47.7601 87.8049 47.7328C87.4052 47.7055 87.1088 47.6918 86.9158 47.6918C86.5299 47.6918 86.1301 47.7055 85.7166 47.7328C85.303 47.7738 84.986 47.7943 84.7654 47.7943C84.5173 47.7943 84.3932 47.6987 84.3932 47.5074C84.3932 47.3844 84.4484 47.2956 84.5586 47.241C84.6689 47.1863 84.793 47.1522 84.9308 47.1385C85.0825 47.1249 85.2341 47.0429 85.3857 46.8926C85.5511 46.7287 85.6683 46.4896 85.7372 46.1754C85.7924 45.9021 85.8199 45.4649 85.8199 44.8638C85.8199 44.4266 85.8062 43.9006 85.7786 43.2858C85.7648 42.6711 85.7441 42.0768 85.7166 41.503C85.689 40.9155 85.6614 40.369 85.6338 39.8635C85.6063 39.3444 85.5856 38.9208 85.5718 38.5929L85.5305 38.1011C85.5305 37.5137 85.4684 37.2199 85.3444 37.2199C85.3306 37.2199 85.3099 37.2267 85.2823 37.2404C85.2548 37.2541 85.2272 37.2746 85.1996 37.3019C85.1858 37.3292 85.1652 37.3565 85.1376 37.3839C85.11 37.4112 85.0825 37.459 85.0549 37.5273C85.0273 37.582 84.9998 37.6298 84.9722 37.6708C84.9446 37.7118 84.9102 37.7732 84.8688 37.8552C84.8274 37.9235 84.793 37.985 84.7654 38.0396C84.7378 38.0943 84.6965 38.1694 84.6414 38.2651C84.6 38.3607 84.5655 38.4427 84.538 38.511L81.6639 44.2695C81.333 44.9389 80.9815 45.6562 80.6093 46.4213C80.3612 46.9404 80.2096 47.2478 80.1544 47.3434C80.0993 47.4254 80.0304 47.4664 79.9477 47.4664C79.8236 47.4664 79.7202 47.4118 79.6375 47.3025C79.5548 47.1795 79.4307 46.9199 79.2653 46.5237C79.0999 46.1275 78.9552 45.7996 78.8311 45.5401C76.3085 40.4578 75.0128 37.8689 74.9438 37.7732C74.9025 37.7186 74.8611 37.6913 74.8198 37.6913C74.7095 37.6913 74.6544 37.9645 74.6544 38.511C74.6406 39.5766 74.6061 40.6286 74.551 41.6669C74.4958 42.7052 74.4683 43.4566 74.4683 43.9211V44.8433C74.4683 45.1985 74.4752 45.4718 74.4889 45.663C74.5165 45.8543 74.5717 46.0797 74.6544 46.3393C74.7509 46.5852 74.9163 46.7765 75.1506 46.9131C75.3849 47.0497 75.6882 47.1385 76.0604 47.1795C76.1293 47.1795 76.1914 47.2068 76.2465 47.2615C76.3154 47.3025 76.3499 47.3503 76.3499 47.4049C76.3499 47.5552 76.3292 47.6577 76.2878 47.7123C76.2465 47.7533 76.1638 47.7738 76.0397 47.7738C75.764 47.7738 75.3505 47.7601 74.7991 47.7328C74.2477 47.7055 73.9445 47.6918 73.8893 47.6918C73.8617 47.6918 73.6619 47.6987 73.2897 47.7123C72.9175 47.7396 72.5522 47.7533 72.1938 47.7533C72.0835 47.7533 72.0008 47.7465 71.9457 47.7328C71.9043 47.7192 71.863 47.6918 71.8216 47.6508C71.7803 47.5962 71.7596 47.5211 71.7596 47.4254C71.7596 47.3161 71.8216 47.241 71.9457 47.2C72.0697 47.159 72.2076 47.1385 72.3592 47.1385C72.5246 47.1249 72.7038 47.0156 72.8968 46.8106C73.0898 46.592 73.2345 46.2778 73.331 45.868C73.4 45.5674 73.4827 44.3788 73.5792 42.3022C73.6757 40.2256 73.7239 38.6886 73.7239 37.6913C73.7239 36.3251 73.586 35.3824 73.3104 34.8632C73.0484 34.3441 72.4695 33.982 71.5735 33.7771C71.3943 33.7361 71.3047 33.6336 71.3047 33.4697Z" fill="#2E4A64"/>
<path d="M90.3057 33.6132C90.3057 33.4629 90.3815 33.3672 90.5332 33.3263C90.6986 33.2853 91.0501 33.2648 91.5877 33.2648C91.6704 33.2648 91.8565 33.2716 92.146 33.2853C92.4492 33.2989 92.6629 33.3058 92.787 33.3058C92.9386 33.3058 93.2143 33.3058 93.614 33.3058C94.0276 33.2921 94.3377 33.2853 94.5445 33.2853C95.2337 33.2853 95.5784 33.3672 95.5784 33.5312C95.5784 33.6815 95.4336 33.8113 95.1441 33.9205C94.8547 34.0162 94.7099 34.1255 94.7099 34.2484C94.7099 34.3851 94.7513 34.5627 94.834 34.7813C94.9305 34.9998 95.0201 35.1775 95.1028 35.3141C95.1993 35.4507 95.3371 35.6488 95.5163 35.9084C95.6955 36.1679 95.7989 36.3251 95.8265 36.3797C96.2952 37.1175 96.7776 37.821 97.2739 38.4905C97.7839 39.1599 98.0734 39.4946 98.1423 39.4946C98.225 39.4946 98.3284 39.4195 98.4525 39.2692C98.5765 39.1053 98.7488 38.8389 98.9694 38.47C99.1899 38.1011 99.376 37.8074 99.5277 37.5888C99.569 37.5205 99.6655 37.3702 99.8171 37.1379C99.9825 36.9057 100.093 36.7417 100.148 36.6461C100.217 36.5505 100.313 36.407 100.437 36.2158C100.562 36.0108 100.651 35.8606 100.706 35.7649C100.761 35.6556 100.823 35.5327 100.892 35.396C100.975 35.2458 101.03 35.1228 101.058 35.0272C101.085 34.9315 101.099 34.8427 101.099 34.7608C101.099 34.3236 100.865 34.0503 100.396 33.941C100.341 33.9274 100.258 33.9137 100.148 33.9001C100.051 33.8864 99.9757 33.8727 99.9205 33.8591C99.8792 33.8454 99.824 33.8249 99.7551 33.7976C99.6862 33.7703 99.6379 33.7361 99.6104 33.6951C99.5828 33.6405 99.569 33.579 99.569 33.5107C99.569 33.3467 99.762 33.2648 100.148 33.2648C100.217 33.2648 100.341 33.2716 100.52 33.2853C100.713 33.2853 100.872 33.2853 100.996 33.2853C101.313 33.2853 101.692 33.2921 102.133 33.3058C102.588 33.3058 102.939 33.3058 103.187 33.3058C103.863 33.3058 104.201 33.4082 104.201 33.6132C104.201 33.6678 104.159 33.7156 104.077 33.7566C103.994 33.7976 103.877 33.8522 103.725 33.9205C103.573 33.9889 103.436 34.0708 103.312 34.1665C102.746 34.6036 101.912 35.642 100.81 37.2814C99.7206 38.9208 99.1003 39.8362 98.9487 40.0275C98.7281 40.3007 98.5903 40.6013 98.5352 40.9291C98.48 41.257 98.4525 41.8172 98.4525 42.6096C98.4525 42.7872 98.4525 43.1697 98.4525 43.7572C98.4662 44.331 98.4731 44.7408 98.4731 44.9868V45.4786C98.4731 45.9294 98.5489 46.2846 98.7006 46.5442C98.866 46.8038 99.0176 46.9609 99.1555 47.0156C99.2933 47.0565 99.4312 47.077 99.569 47.077C99.5966 47.077 99.6655 47.0839 99.7758 47.0975C99.8861 47.0975 99.955 47.0975 99.9825 47.0975C100.079 47.0975 100.155 47.1317 100.21 47.2C100.265 47.2546 100.293 47.3161 100.293 47.3844C100.293 47.5211 100.258 47.6099 100.189 47.6508C100.12 47.6918 99.9894 47.7123 99.7965 47.7123C99.7275 47.7123 99.4243 47.7123 98.8867 47.7123C98.3629 47.6987 97.9769 47.6918 97.7288 47.6918C97.2463 47.6918 96.8052 47.7055 96.4054 47.7328C96.0057 47.7601 95.6886 47.7738 95.4543 47.7738C95.0683 47.7738 94.8753 47.6987 94.8753 47.5484C94.8753 47.4254 94.9098 47.3434 94.9787 47.3025C95.0614 47.2478 95.1924 47.2137 95.3716 47.2C95.5508 47.1863 95.6817 47.1658 95.7644 47.1385C96.3434 46.9609 96.6329 46.5442 96.6329 45.8884C96.6329 45.8065 96.6329 45.6767 96.6329 45.4991C96.6467 45.3078 96.6536 44.9116 96.6536 44.3105C96.6673 43.7094 96.6742 42.8487 96.6742 41.7284C96.6742 41.5098 96.6536 41.3253 96.6122 41.1751C96.5846 41.0111 96.5433 40.854 96.4881 40.7037C96.4468 40.5534 96.3296 40.3349 96.1366 40.0479C95.9574 39.761 95.7782 39.4878 95.599 39.2282C95.4198 38.955 95.1097 38.5041 94.6686 37.8757C94.2412 37.2472 93.8277 36.6325 93.4279 36.0313C93.0006 35.3892 92.6146 34.9042 92.27 34.5763C91.9254 34.2348 91.6566 34.0367 91.4636 33.982C91.2844 33.9137 91.0708 33.8796 90.8226 33.8796C90.478 33.8796 90.3057 33.7908 90.3057 33.6132Z" fill="#2E4A64"/>
<path d="M109.428 33.4697C109.428 33.2238 109.614 33.1008 109.986 33.1008C110.041 33.1008 110.131 33.1077 110.255 33.1213C110.379 33.135 110.476 33.1418 110.544 33.1418C110.682 33.1418 110.937 33.1555 111.31 33.1828C111.695 33.2101 112.04 33.2238 112.343 33.2238C112.771 33.2238 113.226 33.2101 113.708 33.1828C114.19 33.1555 114.459 33.1418 114.514 33.1418C114.749 33.1418 114.866 33.2101 114.866 33.3467C114.866 33.538 114.783 33.6678 114.618 33.7361C114.452 33.7908 114.266 33.8317 114.06 33.8591C113.867 33.8727 113.674 34.023 113.481 34.3099C113.301 34.5832 113.198 34.9998 113.17 35.56C113.143 36.0928 113.108 37.582 113.067 40.0275C113.026 42.473 113.005 43.8391 113.005 44.1261V44.9458C113.005 45.9294 113.17 46.4691 113.501 46.5647C113.846 46.674 114.142 46.7287 114.39 46.7287C115.424 46.7287 116.327 46.6808 117.099 46.5852C117.885 46.4896 118.471 46.3734 118.857 46.2368C119.256 46.0865 119.587 45.9294 119.849 45.7655C120.111 45.5879 120.276 45.4308 120.345 45.2942C120.428 45.1439 120.504 45.0209 120.573 44.9253C120.656 44.8296 120.738 44.7818 120.821 44.7818C120.986 44.7818 121.069 44.898 121.069 45.1302C121.069 45.7177 120.773 46.312 120.18 46.9131C119.587 47.5142 119.07 47.8148 118.629 47.8148C117.637 47.8148 116.513 47.7806 115.259 47.7123C114.018 47.644 113.246 47.6099 112.943 47.6099C112.557 47.6099 112.109 47.6372 111.599 47.6918C111.103 47.7465 110.689 47.7738 110.358 47.7738C109.959 47.7738 109.759 47.6918 109.759 47.5279C109.759 47.4323 109.793 47.3571 109.862 47.3025C109.945 47.2342 110.021 47.2 110.09 47.2C110.296 47.2 110.496 47.1317 110.689 46.9951C110.937 46.8038 111.117 46.4554 111.227 45.9499C111.337 45.4308 111.392 44.4403 111.392 42.9784V40.4373C111.392 40.0684 111.399 39.4946 111.413 38.7159C111.44 37.9372 111.454 37.3292 111.454 36.892C111.454 36.5232 111.44 35.9015 111.413 35.0272C111.399 34.631 111.227 34.3236 110.896 34.105C110.565 33.8864 110.179 33.7703 109.738 33.7566C109.6 33.7566 109.511 33.7361 109.469 33.6951C109.442 33.6405 109.428 33.5653 109.428 33.4697Z" fill="#2E4A64"/>
<path d="M121.887 33.4697C121.887 33.2648 122.08 33.1623 122.466 33.1623C122.603 33.1623 122.92 33.176 123.417 33.2033C123.913 33.2306 124.375 33.2443 124.802 33.2443C125.064 33.2443 125.312 33.2375 125.546 33.2238C125.795 33.2101 126.153 33.2033 126.622 33.2033C126.994 33.2033 127.18 33.2989 127.18 33.4902C127.18 33.5995 126.863 33.7839 126.229 34.0435C125.788 34.2211 125.567 35.0067 125.567 36.4002C125.567 38.2446 125.553 39.8772 125.526 41.298C125.512 42.7052 125.505 43.6001 125.505 43.9826C125.505 45.1302 125.677 45.9568 126.022 46.4622C126.325 46.8858 126.656 47.0975 127.014 47.0975C127.042 47.0975 127.111 47.1044 127.221 47.118C127.332 47.118 127.4 47.118 127.428 47.118C127.525 47.118 127.621 47.1454 127.718 47.2C127.814 47.241 127.862 47.2888 127.862 47.3434C127.862 47.4937 127.821 47.5962 127.738 47.6508C127.669 47.6918 127.538 47.7123 127.345 47.7123C126.932 47.7123 126.546 47.6987 126.187 47.6713C125.843 47.644 125.574 47.6304 125.381 47.6304C124.995 47.6304 124.575 47.6508 124.12 47.6918C123.665 47.7192 123.327 47.7328 123.107 47.7328C122.486 47.7328 122.176 47.6304 122.176 47.4254C122.176 47.3025 122.238 47.2205 122.362 47.1795C122.5 47.1249 122.652 47.0907 122.817 47.077C122.982 47.0497 123.155 46.9609 123.334 46.8106C123.513 46.6467 123.637 46.4144 123.706 46.1139C123.734 46.0182 123.775 45.2463 123.83 43.7982C123.899 42.3363 123.934 41.2844 123.934 40.6422V39.4741C123.934 39.2965 123.934 38.9618 123.934 38.47C123.947 37.9645 123.954 37.5615 123.954 37.2609V36.3182C123.954 35.7171 123.927 35.2184 123.872 34.8222C123.83 34.4944 123.644 34.2416 123.313 34.064C122.996 33.8864 122.665 33.7908 122.321 33.7771C122.031 33.7634 121.887 33.661 121.887 33.4697Z" fill="#2E4A64"/>
<path d="M128.671 33.5517C128.671 33.4697 128.719 33.3946 128.816 33.3263C128.912 33.2443 129.037 33.2033 129.188 33.2033C129.271 33.2033 129.409 33.2101 129.602 33.2238C129.795 33.2238 129.919 33.2238 129.974 33.2238C130.181 33.2238 130.374 33.217 130.553 33.2033C130.732 33.1896 130.877 33.1828 130.987 33.1828C131.111 33.1828 131.256 33.2238 131.421 33.3058C131.587 33.3741 131.683 33.4492 131.711 33.5312C131.738 33.5722 131.814 33.6678 131.938 33.8181C132.062 33.9547 132.228 34.1391 132.434 34.3714C132.641 34.6036 132.827 34.8291 132.993 35.0477C134.867 37.4658 137.376 40.3827 140.519 43.7982C140.602 43.8938 140.698 44.0031 140.809 44.1261C140.933 44.249 141.015 44.3446 141.057 44.413C141.112 44.4676 141.167 44.5222 141.222 44.5769C141.277 44.6315 141.319 44.6725 141.346 44.6999C141.388 44.7135 141.422 44.7203 141.45 44.7203C141.587 44.7203 141.656 44.2968 141.656 43.4498V41.0521C141.656 40.1368 141.65 39.3649 141.636 38.7364C141.636 38.1079 141.629 37.6571 141.615 37.3839C141.615 37.097 141.615 36.9194 141.615 36.851V36.7076C141.615 36.2431 141.581 35.8469 141.512 35.519C141.457 35.1911 141.388 34.9384 141.305 34.7608C141.222 34.5832 141.098 34.4329 140.933 34.3099C140.781 34.187 140.65 34.1118 140.54 34.0845C140.43 34.0435 140.271 34.0025 140.064 33.9615C139.857 33.9206 139.713 33.8864 139.63 33.8591C139.354 33.7771 139.217 33.661 139.217 33.5107C139.217 33.3058 139.347 33.2033 139.609 33.2033C139.692 33.2033 140.023 33.2101 140.602 33.2238C141.181 33.2238 141.505 33.2238 141.574 33.2238C141.905 33.2238 142.27 33.217 142.67 33.2033C143.083 33.1896 143.338 33.1828 143.435 33.1828C143.669 33.1828 143.827 33.2101 143.91 33.2648C144.007 33.3058 144.055 33.3946 144.055 33.5312C144.055 33.5858 144.014 33.6405 143.931 33.6951C143.862 33.7361 143.786 33.7771 143.703 33.8181C143.621 33.8454 143.538 33.8727 143.455 33.9001L143.331 33.941C142.876 34.187 142.649 34.9589 142.649 36.2567V37.0355C142.649 38.0738 142.608 39.8772 142.525 42.4456C142.456 45.0004 142.421 46.5784 142.421 47.1795V47.5894C142.421 47.9036 142.325 48.0607 142.132 48.0607C142.008 48.0607 141.898 48.0129 141.801 47.9173C137.225 42.6574 134.488 39.5356 133.592 38.552C132.71 37.5546 132.221 37.056 132.124 37.056C131.986 37.056 131.918 37.5205 131.918 38.4495C131.918 39.7474 131.89 41.1477 131.835 42.6506C131.78 44.1397 131.752 44.9526 131.752 45.0892C131.752 45.704 131.855 46.1753 132.062 46.5032C132.283 46.8175 132.517 46.9951 132.765 47.0361C133.013 47.077 133.241 47.1249 133.448 47.1795C133.668 47.2205 133.778 47.3093 133.778 47.4459C133.778 47.5962 133.751 47.6918 133.696 47.7328C133.654 47.7738 133.572 47.7943 133.448 47.7943C133.351 47.7943 133.131 47.7875 132.786 47.7738C132.455 47.7601 131.938 47.7533 131.235 47.7533C131.111 47.7533 130.856 47.7601 130.47 47.7738C130.084 47.7875 129.753 47.7943 129.478 47.7943C129.174 47.7943 129.023 47.685 129.023 47.4664C129.023 47.3434 129.112 47.2683 129.292 47.241C129.471 47.2 129.691 47.0907 129.953 46.9131C130.215 46.7355 130.415 46.4008 130.553 45.9089C130.636 45.5947 130.739 44.3242 130.863 42.0972C130.987 39.8703 131.049 38.3334 131.049 37.4863C131.049 36.3114 130.884 35.437 130.553 34.8632C130.222 34.2758 129.684 33.941 128.94 33.8591C128.761 33.8454 128.671 33.7429 128.671 33.5517Z" fill="#2E4A64"/>
<path d="M145.168 33.3877C145.168 33.1965 145.361 33.1008 145.747 33.1008C145.803 33.1008 145.892 33.1077 146.016 33.1213C146.14 33.135 146.237 33.1418 146.306 33.1418C146.347 33.1418 146.995 33.1623 148.249 33.2033C149.504 33.2306 150.538 33.2443 151.351 33.2443C151.64 33.2443 152.35 33.2306 153.481 33.2033C154.625 33.176 155.293 33.1623 155.486 33.1623C155.748 33.1623 155.879 33.3194 155.879 33.6336C155.879 33.7156 155.838 33.9889 155.755 34.4534C155.672 34.9042 155.631 35.3277 155.631 35.7239C155.631 35.8469 155.597 35.9562 155.528 36.0518C155.459 36.1338 155.383 36.1748 155.3 36.1748C155.093 36.1748 154.99 36.0313 154.99 35.7444C154.99 35.3756 154.873 35.0408 154.638 34.7403C154.404 34.4397 154.115 34.2826 153.77 34.2689C152.529 34.1733 151.578 34.1255 150.917 34.1255H150.379C149.662 34.1255 149.242 34.1801 149.118 34.2894C149.007 34.3851 148.939 34.7471 148.911 35.3756C148.856 36.3592 148.828 37.5 148.828 38.7979C148.828 39.481 148.959 39.8294 149.221 39.843H149.738H150.606H151.247C152.075 39.843 152.626 39.8157 152.902 39.761C153.177 39.7064 153.425 39.6039 153.646 39.4537C153.908 39.276 154.066 39.0233 154.122 38.6954C154.163 38.4632 154.259 38.347 154.411 38.347C154.535 38.347 154.611 38.3675 154.638 38.4085C154.666 38.4495 154.68 38.5383 154.68 38.6749C154.68 38.7706 154.652 39.0848 154.597 39.6176C154.542 40.1504 154.514 40.5534 154.514 40.8267C154.514 41.0863 154.521 41.3322 154.535 41.5644C154.563 41.7967 154.576 41.9675 154.576 42.0768C154.576 42.4183 154.528 42.5891 154.432 42.5891C154.225 42.5891 154.073 42.4251 153.977 42.0972C153.784 41.5234 153.612 41.1887 153.46 41.0931C153.17 40.9018 152.509 40.8062 151.475 40.8062C151.061 40.8062 150.724 40.8062 150.462 40.8062C150.214 40.8062 150.048 40.8062 149.965 40.8062C149.897 40.7925 149.835 40.7857 149.779 40.7857C149.738 40.7857 149.697 40.7857 149.655 40.7857C149.09 40.7857 148.808 40.9155 148.808 41.1751C148.808 41.5713 148.801 42.0699 148.787 42.6711C148.773 43.2585 148.766 43.7435 148.766 44.1261V44.9458C148.766 45.9294 148.932 46.4691 149.262 46.5647C149.607 46.674 149.903 46.7287 150.152 46.7287C151.185 46.7287 152.088 46.6808 152.86 46.5852C153.646 46.4896 154.232 46.3734 154.618 46.2368C155.018 46.0865 155.348 45.9294 155.61 45.7655C155.872 45.5879 156.038 45.4308 156.107 45.2942C156.189 45.1439 156.265 45.0209 156.334 44.9253C156.417 44.8296 156.499 44.7818 156.582 44.7818C156.748 44.7818 156.83 44.898 156.83 45.1302C156.83 45.7177 156.534 46.312 155.941 46.9131C155.348 47.5142 154.831 47.8148 154.39 47.8148C153.398 47.8148 152.274 47.7806 151.02 47.7123C149.779 47.644 149.007 47.6099 148.704 47.6099C148.318 47.6099 147.836 47.644 147.257 47.7123C146.678 47.767 146.223 47.7943 145.892 47.7943C145.603 47.7943 145.458 47.726 145.458 47.5894C145.458 47.4664 145.458 47.3844 145.458 47.3434C145.458 47.3025 145.479 47.2683 145.52 47.241C145.561 47.2137 145.603 47.2 145.644 47.2C145.699 47.1863 145.789 47.159 145.913 47.118C146.051 47.077 146.195 47.0224 146.347 46.9541C146.678 46.7901 146.891 46.4691 146.988 45.9909C147.098 45.5127 147.153 44.5086 147.153 42.9784V40.4373C147.153 40.0684 147.16 39.4946 147.174 38.7159C147.202 37.9372 147.215 37.3292 147.215 36.892C147.215 36.5232 147.202 35.9015 147.174 35.0272C147.16 34.631 146.988 34.3236 146.657 34.105C146.326 33.8864 145.94 33.7703 145.499 33.7566C145.279 33.7566 145.168 33.6336 145.168 33.3877Z" fill="#2E4A64"/>
<path d="M157.647 47.5484C157.647 47.3571 157.751 47.2273 157.957 47.159C158.399 46.9951 158.785 46.633 159.115 46.0729C159.446 45.4991 160.266 43.7982 161.576 40.9701C162.927 38.0738 164.119 35.5327 165.153 33.3467C165.25 33.1418 165.332 33.012 165.401 32.9574C165.484 32.9027 165.608 32.8754 165.773 32.8754C165.897 32.8754 165.98 32.9027 166.021 32.9574C166.063 33.012 166.152 33.2375 166.29 33.6336C166.373 33.8659 166.442 34.064 166.497 34.2279C166.566 34.3919 166.669 34.6583 166.807 35.0272C166.945 35.396 167.097 35.7786 167.262 36.1748C167.703 37.2541 168.461 39.0438 169.537 41.5439C170.626 44.0304 171.218 45.3761 171.315 45.5811C171.549 46.0456 171.811 46.4008 172.101 46.6467C172.39 46.8789 172.638 47.0087 172.845 47.0361C173.065 47.0497 173.245 47.0839 173.382 47.1385C173.534 47.1795 173.61 47.282 173.61 47.4459C173.61 47.6508 173.424 47.7533 173.052 47.7533C172.9 47.7533 172.604 47.7328 172.163 47.6918C171.721 47.6508 171.398 47.6304 171.191 47.6304C170.929 47.6304 170.591 47.644 170.178 47.6713C169.764 47.6987 169.461 47.7123 169.268 47.7123C168.84 47.7123 168.565 47.6987 168.441 47.6713C168.33 47.6304 168.275 47.5484 168.275 47.4254C168.275 47.3298 168.33 47.2546 168.441 47.2C168.551 47.1317 168.668 47.0907 168.792 47.077C168.916 47.0497 169.033 46.9882 169.144 46.8926C169.254 46.7833 169.309 46.6399 169.309 46.4622C169.309 46.1617 169.137 45.5469 168.792 44.6179C168.448 43.6889 168.158 43.0058 167.924 42.5686C167.8 42.3363 167.517 42.2202 167.076 42.2202C167.007 42.2202 166.704 42.227 166.166 42.2407C165.629 42.2544 165.098 42.2612 164.574 42.2612H163.478C162.858 42.2612 162.465 42.2953 162.3 42.3637C162.148 42.432 162.01 42.5959 161.886 42.8555C161.803 43.0331 161.666 43.32 161.473 43.7162C161.28 44.0987 161.149 44.3651 161.08 44.5154C161.011 44.6657 160.921 44.8638 160.811 45.1097C160.714 45.342 160.645 45.5332 160.604 45.6835C160.577 45.8201 160.563 45.9431 160.563 46.0524C160.563 46.3666 160.639 46.6057 160.79 46.7696C160.956 46.9336 161.135 47.0292 161.328 47.0565C161.521 47.0702 161.693 47.1044 161.845 47.159C162.01 47.2137 162.093 47.3093 162.093 47.4459C162.093 47.5415 162.072 47.6167 162.031 47.6713C161.989 47.7123 161.893 47.7328 161.741 47.7328C161.659 47.7328 161.417 47.726 161.018 47.7123C160.632 47.7123 160.301 47.7123 160.025 47.7123C159.722 47.7123 159.377 47.726 158.991 47.7533C158.619 47.7806 158.371 47.7943 158.247 47.7943C157.847 47.7943 157.647 47.7123 157.647 47.5484ZM162.837 40.7857C162.837 40.9633 162.899 41.0726 163.023 41.1136C163.147 41.1546 163.437 41.1751 163.892 41.1751H164.533L166.497 41.1546C167.035 41.1546 167.303 41.0453 167.303 40.8267C167.303 40.6491 166.966 39.8089 166.29 38.306C165.615 36.7896 165.188 36.0313 165.008 36.0313C164.884 36.0313 164.491 36.7896 163.83 38.306C163.168 39.8089 162.837 40.6354 162.837 40.7857Z" fill="#2E4A64"/>
<path d="M173.914 40.9701C173.914 39.481 174.21 38.1421 174.803 36.9535C175.409 35.7649 176.333 34.8086 177.574 34.0845C178.814 33.3467 180.289 32.9779 181.999 32.9779C182.66 32.9779 183.28 33.0325 183.859 33.1418C184.438 33.2375 184.914 33.3536 185.286 33.4902C185.658 33.6268 185.982 33.7703 186.258 33.9205C186.534 34.0572 186.74 34.1801 186.878 34.2894C187.03 34.3851 187.12 34.4329 187.147 34.4329C187.188 34.4329 187.278 34.3851 187.416 34.2894C187.568 34.1801 187.671 34.1255 187.726 34.1255C187.933 34.1255 188.036 34.2621 188.036 34.5353C188.05 34.9315 188.078 35.3482 188.119 35.7854C188.174 36.2226 188.222 36.5846 188.264 36.8715C188.305 37.1584 188.326 37.3292 188.326 37.3839C188.326 37.6161 188.243 37.7322 188.078 37.7322C187.912 37.7322 187.795 37.6503 187.726 37.4863C187.244 36.448 186.437 35.5736 185.307 34.8632C184.176 34.1391 183.012 33.7771 181.812 33.7771C180.089 33.7771 178.663 34.3167 177.532 35.396C176.416 36.4617 175.857 37.944 175.857 39.843C175.857 41.0999 176.092 42.2817 176.56 43.3883C177.029 44.4949 177.739 45.4103 178.69 46.1344C179.655 46.8584 180.758 47.2205 181.999 47.2205C183.06 47.2205 184.018 46.9814 184.873 46.5032C185.741 46.0251 186.224 45.4786 186.32 44.8638C186.361 44.5359 186.382 43.6752 186.382 42.2817C186.382 41.7489 186.265 41.3663 186.031 41.1341C185.865 40.9701 185.562 40.8608 185.121 40.8062C184.707 40.7652 184.466 40.6832 184.397 40.5603C184.369 40.5056 184.356 40.4373 184.356 40.3553C184.356 40.2051 184.48 40.1299 184.728 40.1299C184.907 40.1299 185.293 40.1504 185.886 40.1914C186.479 40.2187 186.858 40.2324 187.023 40.2324C187.299 40.2324 187.595 40.2324 187.912 40.2324C188.229 40.2187 188.484 40.2119 188.677 40.2119H188.987C189.208 40.2119 189.318 40.2734 189.318 40.3963C189.318 40.492 189.139 40.6149 188.781 40.7652C188.436 40.9155 188.243 41.1068 188.202 41.339C188.105 41.9265 188.057 42.6915 188.057 43.6342C188.057 44.0441 188.064 44.4061 188.078 44.7203C188.091 45.0346 188.098 45.26 188.098 45.3966C188.112 45.5196 188.126 45.6289 188.14 45.7245C188.153 45.8201 188.16 45.8884 188.16 45.9294C188.16 45.9977 188.105 46.0524 187.995 46.0934C187.898 46.1207 187.733 46.1685 187.499 46.2368C187.264 46.2915 187.051 46.3734 186.858 46.4827L186.713 46.5647C186.616 46.633 186.52 46.6945 186.423 46.7492C186.327 46.8038 186.196 46.8721 186.031 46.9541C185.879 47.0361 185.72 47.118 185.555 47.2C185.39 47.282 185.203 47.3708 184.997 47.4664C184.79 47.5484 184.576 47.6235 184.356 47.6918C184.135 47.7601 183.908 47.8216 183.673 47.8763C183.439 47.9309 183.191 47.9719 182.929 47.9992C182.681 48.0402 182.433 48.0607 182.185 48.0607C180.682 48.0607 179.373 47.8626 178.256 47.4664C177.153 47.0565 176.299 46.5101 175.692 45.827C175.086 45.1302 174.637 44.3788 174.348 43.5727C174.059 42.7667 173.914 41.8991 173.914 40.9701Z" fill="#2E4A64"/>
<path d="M190.339 33.3877C190.339 33.1965 190.532 33.1008 190.918 33.1008C190.973 33.1008 191.062 33.1077 191.187 33.1213C191.311 33.135 191.407 33.1418 191.476 33.1418C191.517 33.1418 192.165 33.1623 193.42 33.2033C194.674 33.2306 195.708 33.2443 196.521 33.2443C196.811 33.2443 197.521 33.2306 198.651 33.2033C199.795 33.176 200.464 33.1623 200.657 33.1623C200.919 33.1623 201.049 33.3194 201.049 33.6336C201.049 33.7156 201.008 33.9889 200.925 34.4534C200.843 34.9042 200.801 35.3277 200.801 35.7239C200.801 35.8469 200.767 35.9562 200.698 36.0518C200.629 36.1338 200.553 36.1748 200.47 36.1748C200.264 36.1748 200.16 36.0313 200.16 35.7444C200.16 35.3756 200.043 35.0408 199.809 34.7403C199.574 34.4397 199.285 34.2826 198.94 34.2689C197.7 34.1733 196.749 34.1255 196.087 34.1255H195.549C194.833 34.1255 194.412 34.1801 194.288 34.2894C194.178 34.3851 194.109 34.7471 194.081 35.3756C194.026 36.3592 193.999 37.5 193.999 38.7979C193.999 39.481 194.13 39.8294 194.391 39.843H194.908H195.777H196.418C197.245 39.843 197.796 39.8157 198.072 39.761C198.348 39.7064 198.596 39.6039 198.816 39.4537C199.078 39.276 199.237 39.0233 199.292 38.6954C199.333 38.4632 199.43 38.347 199.581 38.347C199.705 38.347 199.781 38.3675 199.809 38.4085C199.836 38.4495 199.85 38.5383 199.85 38.6749C199.85 38.7706 199.823 39.0848 199.767 39.6176C199.712 40.1504 199.685 40.5534 199.685 40.8267C199.685 41.0863 199.692 41.3322 199.705 41.5644C199.733 41.7967 199.747 41.9675 199.747 42.0768C199.747 42.4183 199.699 42.5891 199.602 42.5891C199.395 42.5891 199.244 42.4251 199.147 42.0972C198.954 41.5234 198.782 41.1887 198.63 41.0931C198.341 40.9018 197.679 40.8062 196.645 40.8062C196.232 40.8062 195.894 40.8062 195.632 40.8062C195.384 40.8062 195.219 40.8062 195.136 40.8062C195.067 40.7925 195.005 40.7857 194.95 40.7857C194.908 40.7857 194.867 40.7857 194.826 40.7857C194.26 40.7857 193.978 40.9155 193.978 41.1751C193.978 41.5713 193.971 42.0699 193.957 42.6711C193.943 43.2585 193.937 43.7435 193.937 44.1261V44.9458C193.937 45.9294 194.102 46.4691 194.433 46.5647C194.777 46.674 195.074 46.7287 195.322 46.7287C196.356 46.7287 197.259 46.6808 198.031 46.5852C198.816 46.4896 199.402 46.3734 199.788 46.2368C200.188 46.0865 200.519 45.9294 200.781 45.7655C201.043 45.5879 201.208 45.4308 201.277 45.2942C201.36 45.1439 201.435 45.0209 201.504 44.9253C201.587 44.8296 201.67 44.7818 201.752 44.7818C201.918 44.7818 202.001 44.898 202.001 45.1302C202.001 45.7177 201.704 46.312 201.111 46.9131C200.519 47.5142 200.002 47.8148 199.561 47.8148C198.568 47.8148 197.445 47.7806 196.19 47.7123C194.95 47.644 194.178 47.6099 193.875 47.6099C193.489 47.6099 193.006 47.644 192.427 47.7123C191.848 47.767 191.393 47.7943 191.062 47.7943C190.773 47.7943 190.628 47.726 190.628 47.5894C190.628 47.4664 190.628 47.3844 190.628 47.3434C190.628 47.3025 190.649 47.2683 190.69 47.241C190.732 47.2137 190.773 47.2 190.814 47.2C190.869 47.1863 190.959 47.159 191.083 47.118C191.221 47.077 191.366 47.0224 191.517 46.9541C191.848 46.7901 192.062 46.4691 192.158 45.9909C192.269 45.5127 192.324 44.5086 192.324 42.9784V40.4373C192.324 40.0684 192.331 39.4946 192.344 38.7159C192.372 37.9372 192.386 37.3292 192.386 36.892C192.386 36.5232 192.372 35.9015 192.344 35.0272C192.331 34.631 192.158 34.3236 191.828 34.105C191.497 33.8864 191.111 33.7703 190.67 33.7566C190.449 33.7566 190.339 33.6336 190.339 33.3877Z" fill="#2E4A64"/>
<path d="M73.0734 56.7377V61.1944L73.068 61.7127L73.0841 62.1616C73.1236 62.5926 73.2848 62.8438 73.5679 62.915C73.765 62.9685 73.9138 62.9952 74.0141 62.9952C74.1216 62.9952 74.1771 63.0273 74.1807 63.0914C74.1879 63.184 74.1252 63.2303 73.9926 63.2303C73.9317 63.2303 73.8116 63.2232 73.6324 63.209C73.5178 63.2018 73.3314 63.1983 73.0734 63.1983L72.6917 63.1876L72.2725 63.1929C72.061 63.1929 71.9016 63.2 71.794 63.2143C71.6543 63.2321 71.5521 63.241 71.4876 63.241C71.3945 63.241 71.3479 63.2054 71.3479 63.1341C71.3479 63.0665 71.407 63.0237 71.5253 63.0059C71.8048 62.9631 71.9947 62.8064 72.0951 62.5356C72.199 62.2649 72.251 61.7768 72.251 61.0715V57.8278C72.251 57.0797 72.2062 56.6077 72.1166 56.4117C72.027 56.2122 71.803 56.0929 71.4446 56.0537C71.3479 56.0466 71.3013 56.011 71.3049 55.9468C71.3085 55.8649 71.3783 55.8239 71.5145 55.8239C71.5826 55.8239 71.674 55.8328 71.7887 55.8507C72.0144 55.8827 72.2008 55.8987 72.3477 55.8987C72.5771 55.8987 72.9103 55.8792 73.3475 55.84C73.5733 55.8222 73.7579 55.8132 73.9012 55.8132C74.6502 55.8132 75.2576 55.9932 75.7235 56.353C76.1929 56.7092 76.4277 57.1759 76.4277 57.753C76.4277 58.4513 76.141 59.0017 75.5676 59.4042C75.1376 59.7035 74.6824 59.8531 74.2022 59.8531C73.9765 59.8531 73.7686 59.8282 73.5787 59.7783C73.3923 59.7284 73.3027 59.675 73.3099 59.618C73.3171 59.5752 73.3511 59.5538 73.412 59.5538C73.4407 59.5538 73.4766 59.5592 73.5196 59.5699C73.602 59.5948 73.7346 59.6073 73.9173 59.6073C74.4334 59.6073 74.8455 59.4666 75.1537 59.1851C75.4655 58.9037 75.6213 58.5296 75.6213 58.063C75.6213 57.525 75.4171 57.0797 75.0085 56.727C74.6 56.3743 74.0822 56.198 73.455 56.198C73.3117 56.198 73.2132 56.2247 73.1594 56.2782C73.1056 56.3316 73.0788 56.4331 73.0788 56.5827L73.0734 56.7377Z" fill="#2E4A64"/>
<path d="M80.857 59.5164L82.3406 61.6967L82.5126 61.9532C82.9713 62.6229 83.3942 62.9703 83.7812 62.9952L83.9533 63.0059C84.0178 63.0095 84.0482 63.0344 84.0446 63.0807C84.0411 63.1341 83.9604 63.1822 83.8027 63.225C83.6486 63.2677 83.473 63.2891 83.276 63.2891C82.9534 63.2891 82.6632 63.2018 82.4051 63.0273C82.1507 62.8491 81.8909 62.5606 81.6257 62.1616L80.2872 60.131L80.212 60.0134C80.126 59.8673 79.9862 59.7943 79.7927 59.7943H79.0777L78.9595 59.8157C78.9165 59.8406 78.895 59.8976 78.895 59.9867V61.6539L78.9004 61.8677C78.9004 62.1741 78.9147 62.3842 78.9434 62.4982C78.9756 62.6087 79.0491 62.7084 79.1638 62.7975C79.3178 62.9186 79.5562 62.9952 79.8787 63.0273C80.0077 63.0415 80.074 63.0825 80.0776 63.1502C80.0847 63.2214 80.0256 63.257 79.9002 63.257C79.85 63.257 79.7443 63.2499 79.583 63.2357C79.4361 63.2214 79.2085 63.2143 78.9004 63.2143L78.3843 63.209L78.1048 63.2143C77.9829 63.2143 77.836 63.2232 77.664 63.241C77.5242 63.2553 77.4275 63.2624 77.3737 63.2624C77.2841 63.2624 77.2393 63.225 77.2393 63.1502C77.2393 63.0967 77.2841 63.0611 77.3737 63.0433C77.6604 62.9899 77.8486 62.8616 77.9382 62.6585C78.0277 62.4519 78.0725 62.0476 78.0725 61.4455V57.6087L78.0618 57.053C78.0618 56.4972 77.8665 56.1873 77.4759 56.1232L77.2232 56.0858C77.1085 56.0644 77.0512 56.0217 77.0512 55.9575C77.0512 55.8827 77.1121 55.8453 77.234 55.8453C77.2626 55.8453 77.3881 55.8524 77.6103 55.8667C77.7393 55.8774 77.8987 55.8827 78.0887 55.8827C78.2535 55.8827 78.5348 55.8702 78.9326 55.8453C79.2193 55.8275 79.4719 55.8186 79.6905 55.8186C80.5148 55.8186 81.1365 55.9736 81.5558 56.2835C81.9751 56.5899 82.1847 57.0476 82.1847 57.6568C82.1847 58.4584 81.7422 59.0783 80.857 59.5164ZM79.2766 59.3989H79.8841C80.3535 59.3989 80.7226 59.2706 80.9914 59.0141C81.2602 58.7576 81.3946 58.4067 81.3946 57.9614C81.3946 57.4449 81.2118 57.0209 80.8463 56.6896C80.4807 56.3547 80.0149 56.1873 79.4486 56.1873C79.2372 56.1873 79.0903 56.2229 79.0079 56.2942C78.929 56.3619 78.8896 56.4866 78.8896 56.6682L78.895 56.8446V59.0141C78.895 59.1816 78.9165 59.2884 78.9595 59.3348C79.0061 59.3775 79.1118 59.3989 79.2766 59.3989Z" fill="#2E4A64"/>
<path d="M86.1249 57.4484V61.4455C86.1249 61.9443 86.1554 62.2738 86.2163 62.4341C86.288 62.6158 86.3758 62.744 86.4797 62.8189C86.5872 62.8937 86.7538 62.9471 86.9796 62.9792C87.1588 63.0041 87.2484 63.0486 87.2484 63.1128C87.2484 63.1983 87.1928 63.241 87.0818 63.241C87.028 63.241 86.9599 63.2357 86.8775 63.225C86.7664 63.2107 86.5765 63.2036 86.3077 63.2036L85.5283 63.1929L84.894 63.2303C84.79 63.241 84.704 63.2464 84.6359 63.2464C84.5392 63.2464 84.4908 63.209 84.4908 63.1341C84.4908 63.07 84.5463 63.029 84.6574 63.0112C84.9298 62.9649 85.1054 62.8723 85.1842 62.7334C85.2631 62.5909 85.3025 62.2934 85.3025 61.841V57.2667C85.3025 56.825 85.2505 56.5275 85.1466 56.3743C85.0463 56.2212 84.8294 56.1178 84.4962 56.0644C84.3851 56.043 84.3277 56.0003 84.3242 55.9362C84.3206 55.8578 84.3725 55.8186 84.48 55.8186C84.5087 55.8186 84.541 55.8204 84.5768 55.8239C84.8384 55.8524 85.186 55.8667 85.6196 55.8667C85.8848 55.8667 86.1124 55.8613 86.3023 55.8507L86.6625 55.8239C86.7306 55.8204 86.7754 55.8186 86.7969 55.8186C86.8936 55.8186 86.942 55.8524 86.942 55.9201C86.942 55.9842 86.8954 56.0323 86.8022 56.0644L86.5227 56.1713C86.2575 56.271 86.1249 56.6967 86.1249 57.4484Z" fill="#2E4A64"/>
<path d="M88.9148 57.1652C88.9148 56.8054 88.8538 56.5418 88.732 56.3743C88.6102 56.2069 88.4077 56.1089 88.1246 56.0804C88.0063 56.0697 87.9472 56.0323 87.9472 55.9682C87.9472 55.897 87.9938 55.8613 88.087 55.8613L88.5116 55.8827C88.5546 55.8863 88.68 55.8881 88.8879 55.8881C89.2498 55.8881 89.5312 55.8792 89.7318 55.8613L90.2318 55.8132C90.4468 55.7954 90.6833 55.7865 90.9413 55.7865C92.4106 55.7865 93.5125 56.1535 94.2472 56.8873C94.9173 57.5571 95.2524 58.4139 95.2524 59.4577C95.2524 60.131 95.1055 60.7491 94.8116 61.3119C94.5178 61.8748 94.1092 62.3183 93.586 62.6425C92.9266 63.0522 92.2063 63.257 91.4251 63.257C91.3319 63.257 91.1671 63.2481 90.9306 63.2303C90.4503 63.1983 90.0329 63.1822 89.6781 63.1822C89.2946 63.1822 88.9614 63.2018 88.6783 63.241C88.5492 63.2588 88.4471 63.2695 88.3719 63.2731C88.2464 63.2802 88.1837 63.2392 88.1837 63.1502C88.1837 63.0896 88.2339 63.0486 88.3342 63.0273C88.5779 62.9774 88.7356 62.8883 88.8073 62.7601C88.8789 62.6318 88.9148 62.37 88.9148 61.9746V57.1652ZM89.7372 56.7324V62.2417C89.7372 62.4591 89.8465 62.6087 90.0651 62.6906C90.255 62.7619 90.4969 62.8242 90.7908 62.8776C91.0882 62.9311 91.3391 62.9578 91.5434 62.9578C92.1562 62.9578 92.708 62.8046 93.199 62.4982C94.0304 61.9852 94.4461 61.1124 94.4461 59.8798C94.4461 59.2101 94.3153 58.5938 94.0537 58.0309C93.7957 57.468 93.4391 57.0263 92.984 56.7056C92.4285 56.3102 91.753 56.1125 90.9574 56.1125C90.3912 56.1125 90.0311 56.1731 89.877 56.2942C89.7838 56.3654 89.7372 56.5115 89.7372 56.7324Z" fill="#2E4A64"/>
<path d="M97.9025 56.727V58.8752C97.9025 59.0391 97.9168 59.1388 97.9455 59.1744C97.9777 59.2065 98.0709 59.2225 98.225 59.2225H99.0528C99.4291 59.2225 99.7265 59.2012 99.9451 59.1584C100.139 59.1192 100.264 59.0676 100.321 59.0034C100.379 58.9393 100.431 58.7897 100.477 58.5546C100.495 58.4655 100.54 58.4228 100.612 58.4263C100.68 58.4299 100.714 58.478 100.714 58.5706C100.714 58.5955 100.712 58.6347 100.708 58.6882C100.68 59.0337 100.665 59.349 100.665 59.634C100.665 59.8513 100.676 60.0668 100.698 60.2806C100.705 60.3518 100.708 60.4035 100.708 60.4356C100.708 60.5246 100.674 60.5692 100.606 60.5692C100.531 60.5692 100.486 60.53 100.472 60.4516L100.44 60.302C100.397 60.0633 100.311 59.9012 100.182 59.8157C100.053 59.7302 99.834 59.6874 99.5259 59.6874H98.3379C98.1623 59.6874 98.044 59.7053 97.9831 59.7409C97.9258 59.7765 97.8971 59.8478 97.8971 59.9546L97.9025 60.131V62.0975C97.9025 62.4003 97.9562 62.5891 98.0637 62.6639C98.1748 62.7387 98.4526 62.7761 98.8969 62.7761C100.305 62.7761 101.21 62.4608 101.612 61.8303C101.651 61.7697 101.69 61.7376 101.73 61.7341C101.794 61.7305 101.827 61.7768 101.827 61.873C101.827 62.1046 101.696 62.3807 101.434 62.7013C101.119 63.086 100.721 63.2784 100.241 63.2784C100.137 63.2784 99.9971 63.2713 99.8215 63.257C99.137 63.1929 98.5708 63.1609 98.1229 63.1609C97.4957 63.1609 97.0532 63.1822 96.7951 63.225C96.659 63.2499 96.5658 63.2624 96.5156 63.2624C96.4009 63.2624 96.3436 63.2232 96.3436 63.1448C96.3436 63.0843 96.3902 63.0415 96.4834 63.0166L96.6876 62.9578C96.9457 62.8865 97.0747 62.6372 97.0747 62.2097L97.08 61.8623V57.3469C97.08 56.8375 97.0227 56.4955 96.908 56.3209C96.7969 56.1428 96.5783 56.0537 96.2522 56.0537C96.1483 56.0537 96.0963 56.0199 96.0963 55.9522C96.0963 55.8524 96.177 55.8026 96.3382 55.8026C96.4278 55.8026 96.5479 55.8115 96.6984 55.8293C97.2108 55.8863 97.8272 55.9148 98.5475 55.9148C98.9847 55.9148 99.3718 55.9077 99.7086 55.8934L100.472 55.856C100.683 55.8489 100.812 55.8417 100.859 55.8346C100.956 55.8204 101.027 55.8132 101.074 55.8132C101.192 55.8132 101.251 55.8649 101.251 55.9682C101.251 56.0003 101.246 56.0412 101.235 56.0911C101.224 56.141 101.21 56.2835 101.192 56.5186L101.171 56.8339C101.153 57.0405 101.135 57.1706 101.117 57.224C101.099 57.2739 101.06 57.3006 100.999 57.3041C100.931 57.3077 100.897 57.2543 100.897 57.1438V57.0049C100.897 56.8909 100.875 56.7822 100.832 56.6789C100.764 56.5186 100.626 56.4117 100.418 56.3583C100.21 56.3049 99.8287 56.2782 99.2732 56.2782H98.4293C98.2071 56.2782 98.0637 56.3067 97.9992 56.3637C97.9347 56.4171 97.9025 56.5382 97.9025 56.727Z" fill="#2E4A64"/>
<path d="M161.933 61.6704L161.938 61.8605C161.938 62.295 161.98 62.5521 162.063 62.6318C162.146 62.7115 162.418 62.7513 162.877 62.7513C163.553 62.7513 164.139 62.6716 164.635 62.5123C165.134 62.3494 165.452 62.1357 165.59 61.8714C165.64 61.7736 165.691 61.7247 165.742 61.7247C165.799 61.7247 165.827 61.7609 165.823 61.8333C165.809 62.0723 165.691 62.3349 165.47 62.6209C165.159 63.0157 164.655 63.213 163.957 63.213C163.841 63.213 163.707 63.2076 163.555 63.1967L162.969 63.1533C162.626 63.1279 162.262 63.1152 161.879 63.1152C161.434 63.1152 161.061 63.137 160.761 63.1804C160.634 63.1985 160.533 63.2094 160.457 63.213C160.367 63.2166 160.322 63.184 160.322 63.1152C160.322 63.0573 160.37 63.0139 160.468 62.9849C160.718 62.9088 160.884 62.7984 160.967 62.6535C161.054 62.5051 161.097 62.257 161.097 61.9094L161.103 61.6595V56.8034C161.103 56.3218 160.908 56.0412 160.517 55.9615L160.273 55.9126C160.186 55.8945 160.143 55.8583 160.143 55.804C160.143 55.7207 160.204 55.679 160.327 55.679C160.41 55.679 160.524 55.6863 160.669 55.7008C160.915 55.7225 161.191 55.7333 161.499 55.7333C161.832 55.7333 162.134 55.7243 162.405 55.7062C162.542 55.6989 162.62 55.6953 162.638 55.6953C162.725 55.6953 162.768 55.7225 162.768 55.7768C162.768 55.8565 162.716 55.909 162.611 55.9343L162.421 55.9778C162.096 56.0575 161.933 56.3816 161.933 56.9501V61.6704Z" fill="#2E4A64"/>
<path d="M167.988 56.5753V58.7589C167.988 58.9255 168.002 59.0269 168.031 59.0631C168.064 59.0957 168.158 59.112 168.313 59.112H169.149C169.529 59.112 169.829 59.0902 170.049 59.0468C170.245 59.007 170.371 58.9544 170.429 58.8893C170.487 58.8241 170.539 58.672 170.587 58.433C170.605 58.3425 170.65 58.299 170.722 58.3026C170.791 58.3062 170.825 58.3551 170.825 58.4493C170.825 58.4746 170.823 58.5145 170.82 58.5688C170.791 58.92 170.776 59.2405 170.776 59.5302C170.776 59.7511 170.787 59.9702 170.809 60.1875C170.816 60.2599 170.82 60.3124 170.82 60.345C170.82 60.4355 170.785 60.4808 170.717 60.4808C170.641 60.4808 170.596 60.441 170.581 60.3613L170.549 60.2092C170.505 59.9666 170.418 59.8018 170.288 59.7149C170.158 59.628 169.937 59.5845 169.626 59.5845H168.427C168.25 59.5845 168.131 59.6026 168.069 59.6389C168.011 59.6751 167.982 59.7475 167.982 59.8561L167.988 60.0354V62.0343C167.988 62.3421 168.042 62.534 168.15 62.6101C168.263 62.6861 168.543 62.7242 168.991 62.7242C170.413 62.7242 171.326 62.4037 171.731 61.7627C171.771 61.7012 171.811 61.6686 171.851 61.6649C171.916 61.6613 171.948 61.7084 171.948 61.8062C171.948 62.0415 171.816 62.3222 171.552 62.6481C171.234 63.0392 170.832 63.2347 170.348 63.2347C170.243 63.2347 170.102 63.2275 169.925 63.213C169.234 63.1478 168.662 63.1152 168.21 63.1152C167.577 63.1152 167.131 63.137 166.87 63.1804C166.733 63.2058 166.639 63.2185 166.588 63.2185C166.472 63.2185 166.414 63.1786 166.414 63.099C166.414 63.0374 166.461 62.9939 166.555 62.9686L166.762 62.9088C167.022 62.8364 167.152 62.5829 167.152 62.1484L167.158 61.7953V57.2054C167.158 56.6875 167.1 56.3399 166.984 56.1625C166.872 55.9814 166.651 55.8909 166.322 55.8909C166.217 55.8909 166.165 55.8565 166.165 55.7877C166.165 55.6863 166.246 55.6356 166.409 55.6356C166.499 55.6356 166.621 55.6446 166.772 55.6627C167.29 55.7207 167.912 55.7496 168.639 55.7496C169.08 55.7496 169.471 55.7424 169.811 55.7279L170.581 55.6899C170.794 55.6827 170.925 55.6754 170.972 55.6682C171.069 55.6537 171.142 55.6464 171.189 55.6464C171.308 55.6464 171.368 55.6989 171.368 55.804C171.368 55.8366 171.362 55.8782 171.351 55.9289C171.341 55.9796 171.326 56.1244 171.308 56.3634L171.286 56.6839C171.268 56.894 171.25 57.0261 171.232 57.0805C171.214 57.1311 171.174 57.1583 171.113 57.1619C171.044 57.1655 171.01 57.1112 171.01 56.999V56.8577C171.01 56.7419 170.988 56.6314 170.945 56.5264C170.876 56.3634 170.737 56.2548 170.527 56.2005C170.317 56.1462 169.932 56.119 169.371 56.119H168.519C168.295 56.119 168.15 56.148 168.085 56.2059C168.02 56.2602 167.988 56.3834 167.988 56.5753Z" fill="#2E4A64"/>
<path d="M178.839 61.3173V60.0951C178.839 59.8742 178.79 59.724 178.692 59.6443C178.598 59.5646 178.406 59.5139 178.117 59.4922C177.976 59.4777 177.904 59.4306 177.9 59.351C177.896 59.2822 177.958 59.2478 178.084 59.2478L178.301 59.2532L178.708 59.2586C179.265 59.2586 179.589 59.255 179.68 59.2478C179.929 59.2297 180.074 59.2206 180.114 59.2206C180.197 59.2206 180.238 59.255 180.238 59.3238C180.238 59.3854 180.184 59.4306 180.076 59.4596C179.801 59.5248 179.663 59.724 179.663 60.0571L179.669 60.2309V61.9691L179.68 62.1429L179.647 62.2244C179.625 62.2425 179.573 62.257 179.49 62.2679C179.392 62.2824 179.242 62.3475 179.039 62.4634L178.681 62.6753C177.976 63.0845 177.218 63.2891 176.408 63.2891C175.323 63.2891 174.433 62.9414 173.739 62.2461C173.044 61.5472 172.697 60.6546 172.697 59.5682C172.697 58.4276 173.064 57.477 173.798 56.7165C174.536 55.9561 175.459 55.5758 176.565 55.5758C176.992 55.5758 177.444 55.6374 177.922 55.7605C178.403 55.8836 178.786 56.0375 179.072 56.2222C179.115 56.2512 179.146 56.2657 179.164 56.2657C179.189 56.2657 179.224 56.2512 179.267 56.2222L179.397 56.1244C179.423 56.1027 179.448 56.0919 179.473 56.0919C179.538 56.0919 179.571 56.177 179.571 56.3471C179.571 56.4268 179.582 56.5499 179.604 56.7165L179.658 57.2271C179.676 57.3647 179.701 57.5023 179.734 57.6399C179.752 57.7051 179.761 57.7576 179.761 57.7975C179.761 57.8844 179.725 57.9296 179.652 57.9333C179.605 57.9369 179.566 57.9061 179.533 57.8409C179.251 57.2615 178.817 56.7908 178.231 56.4286C177.645 56.0665 177.025 55.8854 176.37 55.8854C175.553 55.8854 174.885 56.1969 174.368 56.8197C173.851 57.4426 173.592 58.2465 173.592 59.2315C173.592 60.2889 173.889 61.1743 174.482 61.8876C175.079 62.5974 175.817 62.9523 176.696 62.9523C177.535 62.9523 178.191 62.6553 178.665 62.0615C178.781 61.9166 178.839 61.6686 178.839 61.3173Z" fill="#2E4A64"/>
<path d="M184.845 60.2961H182.881C182.613 60.2961 182.446 60.3178 182.381 60.3613C182.316 60.4047 182.229 60.5496 182.121 60.7958L181.768 61.5943C181.609 61.9601 181.53 62.2317 181.53 62.4091C181.53 62.5793 181.571 62.7024 181.654 62.7785C181.741 62.8545 181.909 62.9197 182.159 62.974C182.267 62.9957 182.323 63.0392 182.327 63.1044C182.331 63.1659 182.28 63.1967 182.175 63.1967C182.135 63.1967 182.074 63.1949 181.991 63.1913L181.47 63.1641C181.296 63.1569 181.096 63.1533 180.868 63.1533C180.763 63.1533 180.681 63.1551 180.624 63.1587C180.439 63.1732 180.338 63.1804 180.32 63.1804C180.222 63.1804 180.173 63.1478 180.173 63.0827C180.173 63.0247 180.204 62.9867 180.265 62.9686L180.466 62.9088C180.539 62.8871 180.636 62.8002 180.759 62.6481C180.882 62.4924 180.983 62.3312 181.063 62.1647L181.22 61.8062L184.009 55.6084C184.056 55.4998 184.108 55.4455 184.166 55.4455C184.224 55.4455 184.273 55.498 184.313 55.603L186.646 61.578L186.765 61.8714C186.935 62.3095 187.076 62.5829 187.188 62.6916C187.3 62.7966 187.528 62.8799 187.872 62.9414C187.984 62.9632 188.038 63.0084 188.035 63.0772C188.031 63.1388 187.98 63.1696 187.883 63.1696C187.85 63.1696 187.781 63.1659 187.677 63.1587C187.488 63.1406 187.154 63.1315 186.673 63.1315C186.17 63.1315 185.855 63.1424 185.729 63.1641C185.653 63.1786 185.597 63.1859 185.561 63.1859C185.467 63.1859 185.42 63.1478 185.42 63.0718C185.42 63.0139 185.465 62.9758 185.555 62.9577L185.723 62.9197C185.904 62.8835 185.995 62.7604 185.995 62.5503C185.995 62.3584 185.884 61.9764 185.664 61.4042L185.392 60.6872C185.317 60.488 185.257 60.374 185.213 60.345C185.17 60.3124 185.047 60.2961 184.845 60.2961ZM184.91 59.427L184.058 57.276L184.014 57.1619C183.971 57.046 183.924 56.9863 183.873 56.9827C183.848 56.9791 183.819 57.0135 183.787 57.0859L182.729 59.4379C182.682 59.5393 182.658 59.6063 182.658 59.6389C182.658 59.733 182.741 59.7801 182.908 59.7801L183.054 59.7855H184.693C184.873 59.7855 184.964 59.7403 184.964 59.6497C184.964 59.6244 184.955 59.5827 184.937 59.5248L184.91 59.427Z" fill="#2E4A64"/>
<path d="M194.491 56.3526L194.665 57.6562L194.681 57.792L194.665 57.8463C194.646 57.8789 194.619 57.897 194.583 57.9007C194.54 57.9043 194.475 57.8282 194.388 57.6725C193.711 56.4848 192.795 55.8909 191.637 55.8909C190.715 55.8909 189.988 56.1751 189.456 56.7437C188.924 57.3122 188.659 58.089 188.659 59.0739C188.659 60.2074 188.953 61.1344 189.543 61.8551C190.136 62.5721 190.897 62.9306 191.827 62.9306C192.37 62.9306 192.903 62.7857 193.428 62.496C193.952 62.2063 194.315 61.8551 194.518 61.4422C194.612 61.2503 194.684 61.1525 194.735 61.1489C194.793 61.1453 194.822 61.1797 194.822 61.2521L194.816 61.3119L194.795 61.4314L194.67 62.0941L194.648 62.1918C194.634 62.286 194.549 62.3838 194.393 62.4852C193.558 63.0175 192.637 63.2836 191.632 63.2836C190.467 63.2836 189.528 62.9378 188.816 62.2461C188.103 61.5545 187.747 60.6438 187.747 59.5139C187.747 58.3841 188.116 57.4462 188.854 56.7002C189.592 55.9506 190.518 55.5758 191.632 55.5758C192.395 55.5758 193.097 55.7478 193.737 56.0919L193.954 56.2059L194.041 56.2439L194.133 56.2765C194.151 56.2765 194.178 56.2621 194.214 56.2331C194.294 56.1751 194.348 56.1462 194.377 56.1462C194.435 56.1462 194.473 56.215 194.491 56.3526Z" fill="#2E4A64"/>
<path d="M198.972 62.0234C198.972 62.4435 199.007 62.7006 199.075 62.7948C199.144 62.8889 199.341 62.9523 199.667 62.9849C199.779 62.9957 199.835 63.0338 199.835 63.099C199.835 63.1859 199.772 63.2293 199.645 63.2293C199.605 63.2293 199.511 63.2203 199.363 63.2022C199.273 63.1913 199.14 63.1804 198.967 63.1696L198.538 63.1478L198.115 63.1587C197.847 63.1587 197.668 63.1641 197.578 63.175C197.473 63.1895 197.404 63.1967 197.372 63.1967C197.289 63.1967 197.247 63.1659 197.247 63.1044C197.247 63.032 197.307 62.9867 197.426 62.9686C197.73 62.9251 197.922 62.8455 198.001 62.7296C198.084 62.6101 198.126 62.3566 198.126 61.9691L198.131 61.7356V60.1169C198.131 59.8851 198.115 59.7149 198.083 59.6063C198.05 59.4976 197.97 59.3437 197.844 59.1446L196.33 56.7382L196.146 56.4395C196.041 56.2693 195.892 56.1317 195.701 56.0267C195.509 55.918 195.319 55.8637 195.131 55.8637C195.026 55.8637 194.974 55.8311 194.974 55.7659C194.974 55.6863 195.03 55.6464 195.142 55.6464C195.232 55.6464 195.325 55.6519 195.419 55.6627C195.654 55.6881 195.9 55.7008 196.157 55.7008C196.688 55.7008 197.028 55.6935 197.176 55.679C197.336 55.6645 197.431 55.6573 197.464 55.6573C197.569 55.6573 197.621 55.6935 197.621 55.7659C197.621 55.8203 197.58 55.8601 197.497 55.8854C197.254 55.9579 197.133 56.081 197.133 56.2548C197.133 56.349 197.211 56.5228 197.366 56.7763L197.518 57.037L198.652 58.8295L198.723 58.9381C198.755 58.9888 198.788 59.0142 198.82 59.0142C198.86 59.0142 198.898 58.9888 198.934 58.9381L198.989 58.8567L199.775 57.6617L200.041 57.238C200.294 56.836 200.421 56.5662 200.421 56.4286C200.421 56.186 200.193 56.0104 199.737 55.9017C199.647 55.88 199.603 55.8384 199.607 55.7768C199.611 55.7152 199.652 55.6845 199.732 55.6845C199.786 55.6845 199.882 55.6953 200.019 55.7171C200.124 55.7352 200.377 55.7442 200.779 55.7442C201.148 55.7442 201.383 55.7388 201.484 55.7279C201.622 55.7134 201.718 55.7044 201.772 55.7008C201.869 55.6935 201.918 55.7261 201.918 55.7985C201.918 55.8565 201.873 55.8999 201.783 55.9289C201.461 56.0339 201.193 56.2367 200.98 56.5373L200.627 57.0642L199.309 59.0305L199.178 59.2152C199.041 59.4107 198.972 59.59 198.972 59.7529V62.0234Z" fill="#2E4A64"/>
<path d="M112.92 59.1968H116.063C116.219 59.1968 116.319 59.1827 116.361 59.1545C116.404 59.1263 116.425 59.0628 116.425 58.9642V57.1612C116.425 56.7982 116.377 56.5408 116.281 56.3893C116.189 56.2377 116.017 56.1337 115.765 56.0773C115.658 56.0562 115.607 56.0139 115.61 55.9504C115.614 55.8905 115.658 55.8606 115.743 55.8606C115.818 55.8606 115.939 55.8694 116.106 55.887C116.34 55.9117 116.589 55.924 116.851 55.924C117.231 55.924 117.498 55.9134 117.651 55.8923C117.746 55.8782 117.812 55.8711 117.848 55.8711C117.933 55.8711 117.975 55.9046 117.975 55.9716C117.975 56.0245 117.933 56.0597 117.848 56.0773L117.629 56.1249C117.519 56.1461 117.427 56.2254 117.352 56.3628C117.278 56.4968 117.24 56.6519 117.24 56.8281V61.9409C117.24 62.318 117.294 62.5789 117.4 62.7234C117.507 62.8679 117.711 62.956 118.013 62.9877C118.123 63.0018 118.18 63.0371 118.183 63.0935C118.19 63.1781 118.141 63.2204 118.034 63.2204C117.963 63.2204 117.871 63.2116 117.757 63.1939C117.672 63.1798 117.494 63.1728 117.224 63.1728L116.83 63.1675L116.431 63.1781C116.367 63.1781 116.281 63.1834 116.175 63.1939C115.955 63.2116 115.832 63.2204 115.807 63.2204C115.719 63.2239 115.676 63.1887 115.68 63.1146C115.683 63.0512 115.743 63.0106 115.861 62.993C116.234 62.9296 116.42 62.6282 116.42 62.0889L116.425 61.8827V59.9423C116.425 59.7766 116.409 59.6797 116.377 59.6515C116.345 59.6233 116.239 59.6092 116.058 59.6092H112.92C112.718 59.6092 112.592 59.6303 112.542 59.6726C112.492 59.7114 112.467 59.8136 112.467 59.9793V61.9197C112.467 62.2863 112.526 62.5436 112.643 62.6917C112.76 62.8397 112.979 62.9313 113.298 62.9666C113.43 62.9807 113.497 63.0265 113.501 63.1041C113.504 63.1781 113.453 63.2151 113.346 63.2151C113.3 63.2151 113.213 63.2063 113.085 63.1887C112.989 63.171 112.776 63.1622 112.446 63.1622L111.998 63.1569L111.647 63.1675C111.558 63.1675 111.446 63.1728 111.311 63.1834C111.127 63.1975 111.015 63.2045 110.976 63.2045C110.887 63.2045 110.843 63.171 110.843 63.1041C110.843 63.0406 110.889 62.9983 110.981 62.9772L111.247 62.9137C111.404 62.8785 111.51 62.7621 111.567 62.5648C111.624 62.3674 111.652 62.0219 111.652 61.5285V56.992C111.652 56.6854 111.594 56.4633 111.476 56.3258C111.359 56.1884 111.15 56.0967 110.848 56.0509C110.745 56.0368 110.693 55.998 110.693 55.9346C110.693 55.8606 110.74 55.8253 110.832 55.8288C110.899 55.8324 111.006 55.8429 111.151 55.8606C111.428 55.8923 111.753 55.9081 112.126 55.9081C112.378 55.9081 112.615 55.894 112.835 55.8658C112.931 55.8517 113.005 55.8447 113.059 55.8447C113.162 55.8447 113.213 55.8817 113.213 55.9557C113.213 56.0121 113.165 56.0527 113.069 56.0773C112.831 56.1372 112.671 56.2236 112.59 56.3364C112.508 56.4457 112.467 56.6307 112.467 56.8916V58.7791C112.467 58.98 112.487 59.0999 112.526 59.1386C112.568 59.1774 112.7 59.1968 112.92 59.1968Z" fill="#2E4A64"/>
<path d="M122.93 55.7865C124.041 55.7865 124.952 56.1284 125.662 56.8123C126.376 57.4925 126.733 58.3649 126.733 59.4294C126.733 60.5574 126.375 61.4826 125.657 62.2052C124.94 62.9278 124.022 63.2891 122.903 63.2891C121.756 63.2891 120.827 62.9437 120.117 62.2528C119.41 61.5619 119.057 60.6561 119.057 59.5352C119.057 59.0487 119.149 58.5676 119.334 58.0918C119.522 57.6124 119.774 57.2123 120.09 56.8916C120.424 56.5532 120.847 56.2853 121.358 56.0879C121.87 55.887 122.393 55.7865 122.93 55.7865ZM122.583 56.1302C121.76 56.1302 121.104 56.4069 120.618 56.9603C120.135 57.5102 119.893 58.2521 119.893 59.1862C119.893 60.2542 120.202 61.1548 120.82 61.888C121.442 62.6212 122.203 62.9877 123.105 62.9877C123.929 62.9877 124.61 62.6899 125.146 62.0942C125.682 61.495 125.95 60.7371 125.95 59.8207C125.95 58.7668 125.629 57.8891 124.986 57.1876C124.343 56.4827 123.542 56.1302 122.583 56.1302Z" fill="#2E4A64"/>
<path d="M134.085 57.9543V62.385C134.085 62.7833 134.076 63.0265 134.058 63.1146C134.04 63.1992 133.991 63.2398 133.909 63.2362C133.856 63.2327 133.815 63.2168 133.786 63.1887L133.669 63.0512L129.178 57.9543L129.125 57.8961C129.104 57.875 129.079 57.8644 129.051 57.8644C128.983 57.8644 128.949 57.9437 128.949 58.1023V61.6871L128.944 61.9091L128.96 62.2845C128.985 62.5172 129.045 62.6776 129.141 62.7657C129.237 62.8538 129.425 62.919 129.706 62.9613C129.823 62.9754 129.882 63.0212 129.882 63.0988C129.882 63.1693 129.844 63.2045 129.77 63.2045C129.72 63.2045 129.667 63.201 129.61 63.1939C129.571 63.1869 129.416 63.1763 129.146 63.1622L128.603 63.1358L128.347 63.1464C128.209 63.1464 128.077 63.1552 127.953 63.1728C127.861 63.1869 127.795 63.1939 127.756 63.1939C127.664 63.1939 127.614 63.1605 127.607 63.0935C127.603 63.0406 127.653 62.9965 127.756 62.9613C128.054 62.8591 128.255 62.7234 128.358 62.5542C128.465 62.3815 128.518 62.1048 128.518 61.7241V58.1288C128.518 57.519 128.42 57.0396 128.225 56.6906C128.029 56.3382 127.747 56.1372 127.378 56.0879C127.282 56.0738 127.234 56.0333 127.234 55.9663C127.234 55.8993 127.273 55.8658 127.351 55.8658C127.369 55.8658 127.397 55.8676 127.436 55.8711L127.655 55.8764L128.012 55.887L128.097 55.8817C128.182 55.8782 128.248 55.8764 128.294 55.8764C128.383 55.8764 128.472 55.9275 128.56 56.0297L133.461 61.539C133.539 61.6272 133.589 61.6695 133.611 61.6659C133.646 61.6624 133.666 61.6289 133.669 61.5655V58.9483L133.674 58.2345L133.611 57.0185C133.575 56.7188 133.486 56.5074 133.344 56.384C133.206 56.2571 132.954 56.1637 132.588 56.1038C132.485 56.0861 132.433 56.0421 132.433 55.9716C132.433 55.9046 132.485 55.8711 132.588 55.8711C132.634 55.8711 132.708 55.8764 132.811 55.887C133.056 55.9152 133.385 55.9293 133.797 55.9293C134.017 55.9293 134.193 55.9187 134.324 55.8976C134.438 55.8764 134.525 55.8658 134.585 55.8658C134.678 55.8658 134.727 55.9028 134.735 55.9769C134.738 56.0227 134.703 56.0562 134.628 56.0773C134.411 56.1302 134.268 56.2183 134.196 56.3417C134.129 56.4651 134.095 56.6959 134.095 57.0343V57.6053L134.085 57.9543Z" fill="#2E4A64"/>
<path d="M139.561 55.7865C140.672 55.7865 141.583 56.1284 142.294 56.8123C143.008 57.4925 143.364 58.3649 143.364 59.4294C143.364 60.5574 143.006 61.4826 142.288 62.2052C141.571 62.9278 140.653 63.2891 139.534 63.2891C138.387 63.2891 137.458 62.9437 136.748 62.2528C136.041 61.5619 135.688 60.6561 135.688 59.5352C135.688 59.0487 135.78 58.5676 135.965 58.0918C136.153 57.6124 136.405 57.2123 136.722 56.8916C137.055 56.5532 137.478 56.2853 137.989 56.0879C138.501 55.887 139.025 55.7865 139.561 55.7865ZM139.215 56.1302C138.391 56.1302 137.735 56.4069 137.249 56.9603C136.766 57.5102 136.524 58.2521 136.524 59.1862C136.524 60.2542 136.833 61.1548 137.451 61.888C138.073 62.6212 138.835 62.9877 139.737 62.9877C140.561 62.9877 141.241 62.6899 141.777 62.0942C142.313 61.495 142.581 60.7371 142.581 59.8207C142.581 58.7668 142.26 57.8891 141.617 57.1876C140.974 56.4827 140.173 56.1302 139.215 56.1302Z" fill="#2E4A64"/>
<path d="M147.946 59.5193L149.416 61.6765L149.586 61.9303C150.041 62.593 150.46 62.9366 150.844 62.9613L151.014 62.9719C151.078 62.9754 151.108 63.0001 151.105 63.0459C151.101 63.0988 151.021 63.1464 150.865 63.1887C150.712 63.2309 150.538 63.2521 150.343 63.2521C150.023 63.2521 149.736 63.1657 149.48 62.993C149.228 62.8168 148.97 62.5313 148.708 62.1365L147.381 60.1273L147.306 60.011C147.221 59.8665 147.083 59.7942 146.891 59.7942H146.182L146.065 59.8154C146.023 59.8401 146.001 59.8965 146.001 59.9846V61.6342L146.007 61.8457C146.007 62.1488 146.021 62.3568 146.049 62.4696C146.081 62.5789 146.154 62.6776 146.268 62.7657C146.42 62.8855 146.657 62.9613 146.976 62.993C147.104 63.0071 147.17 63.0477 147.173 63.1146C147.18 63.1851 147.122 63.2204 146.998 63.2204C146.948 63.2204 146.843 63.2133 146.683 63.1992C146.538 63.1851 146.312 63.1781 146.007 63.1781L145.495 63.1728L145.218 63.1781C145.098 63.1781 144.952 63.1869 144.781 63.2045C144.643 63.2186 144.547 63.2257 144.494 63.2257C144.405 63.2257 144.361 63.1887 144.361 63.1146C144.361 63.0618 144.405 63.0265 144.494 63.0089C144.778 62.956 144.964 62.8291 145.053 62.6282C145.142 62.4238 145.186 62.0237 145.186 61.428V57.6318L145.176 57.0819C145.176 56.532 144.982 56.2254 144.595 56.1619L144.345 56.1249C144.231 56.1038 144.174 56.0615 144.174 55.998C144.174 55.924 144.235 55.887 144.355 55.887C144.384 55.887 144.508 55.894 144.728 55.9081C144.856 55.9187 145.014 55.924 145.202 55.924C145.366 55.924 145.644 55.9117 146.039 55.887C146.323 55.8694 146.573 55.8606 146.79 55.8606C147.607 55.8606 148.223 56.0139 148.638 56.3205C149.054 56.6237 149.262 57.0766 149.262 57.6794C149.262 58.4724 148.823 59.0858 147.946 59.5193ZM146.38 59.403H146.982C147.447 59.403 147.813 59.2761 148.079 59.0223C148.345 58.7685 148.478 58.4213 148.478 57.9807C148.478 57.4696 148.297 57.0502 147.935 56.7224C147.573 56.391 147.111 56.2254 146.55 56.2254C146.34 56.2254 146.195 56.2606 146.113 56.3311C146.035 56.3981 145.996 56.5215 145.996 56.7012L146.001 56.8757V59.0223C146.001 59.188 146.023 59.2937 146.065 59.3395C146.111 59.3818 146.216 59.403 146.38 59.403Z" fill="#2E4A64"/>
<rect x="105.919" y="54.4221" width="0.682052" height="9.88976" fill="#2E4A64"/>
<rect x="155.197" y="54.4221" width="0.682052" height="9.88976" fill="#2E4A64"/>
</svg>
